<?xml version="1.0" encoding="UTF-8"?>
<svg xmlns="http://www.w3.org/2000/svg" viewBox="0 0 406.71 769.49">
  <g>
    <path fill="currentColor" d="m292.5,607.98c-.21-.24-.42-.49-.64-.73,4.64-6.67,9.12-13.48,14.05-19.94,1.28-1.68,3.85-2.79,6.03-3.26,3.51-.76,5.13.88,5.16,4.49.02,3.16.17,6.35-.24,9.46-.3,2.26-.95,4.81-2.33,6.5-1.19,1.46-3.66,2.58-5.53,2.53-1.13-.03-2.22-2.56-3.27-4-.44-.6-.73-1.32-1.84-3.37-4.27,3.12-7.83,5.72-11.4,8.32Zm27.02,33.58c-.56.97-1.18,1.93-1.68,2.95-2.98,5.99-5.75,12.1-9.03,17.92-.88,1.56-4.35,3.53-4.89,3.1-3.2-2.52-6.96-.77-10.25-1.94-.85-.3-2.63.24-3.1.97-3.25,5.02-9.09,5.77-14.56,9.37.95,2.53,1.91,5.12,2.93,7.84,2.5-.87,4.13-1.43,5.58-1.94,6.27,4.97,15.16,4.95,21.76,0,3.4-2.54,6.22-6.28,9.99-7.8,6.01-2.43,8.85-6.87,10.93-12.34,2.59-6.81-.79-14.94-7.66-18.14Zm-102.61-212.18c-2.78,2.59-7.57,6.42-8.66,6.96-.6.29-1.27.45-1.9.63,0,0-.01-.02-.01-.02,0,0,0,.01,0,.02-.37.11-.72.23-1.02.39-16.02,4.44-32.03,8.87-47.19,13.07,16.44,1.78,31.98-5.22,47.9-9.36.12-.02.25-.03.39-.07.07-.03.14-.06.21-.09.05-.01.09-.03.14-.04,0,0,0-.01,0-.02,4.84-2.05,7.41-7.19,9.17-8.9,2.82-2.4,2.89-4.36.97-2.57Zm89.95,227.4c4.77-.92,5.92-5.84,7.6-9.79.85-2,1.77-3.97,2.51-6.01,1.36-3.72.22-7.45-2.68-10.05-1.03-.92-2.01-2.14-2.48-3.42-1.54-4.22-2.84-8.53-4.23-12.8-.41.18-.82.36-1.24.54-1.85-.56-3.67-1.29-5.56-1.62-1.19-.21-2.88-.32-3.68.34-4.65,3.85-8.99,8.06-13.64,11.91-3.85,3.2-5.24,7.48-5.29,12.06-.04,3.14.36,6.84,2.02,9.3,1.87,2.77,5.54,4.25,8.14,6.61,5.58,5.06,12.2,4.16,18.52,2.95Zm76.29-79.11c3.25,8.51-1.15,15.57-10.3,17.44-2.97.61-5.67,2.52-8.92,4.04,1.21,1.7,1.85,2.61,1.87,2.63-1.93,1.94-4.13,3.22-4.9,5.09-2.33,5.64-3.6,11.77-6.25,17.23-2.8,5.75-6.14,11.47-10.32,16.26-3.81,4.37-10.1,4.07-15.56,4.51-.95.08-3.12-2.67-3-3.95.44-4.7-1.04-8.84-3.75-12.18-5.62-6.93-4.6-14.45-1.32-21.23,4.08-8.42,8.29-17.14,16.1-23.07,6.87-5.21,14.1-9.55,23.07-10.46,4.76-.48,9.48-1.88,14.06-3.36,5.07-1.64,5.15-1.75,6.88,3.27.47,1.37,1.83,2.42,2.35,3.78Zm-26.3,31.12c.41-1.49.82-2.98,1.23-4.47-.24.21-.48.42-.72.63-.48.42-.96.86-1.41,1.3-.45.44-.88.9-1.26,1.38-.58.72-1.06,1.47-1.38,2.3-2.55,6.45-4.66,13.08-6.93,19.59-.3-.03-.6-.07-.91-.12-.61-.09-1.23-.19-1.85-.28-.31-.05-.62-.09-.93-.14-.62-.09-1.25-.16-1.87-.19s-1.25-.04-1.87,0c-.6.05-1.2.15-1.79.28-.6.14-1.19.31-1.8.5-.3.09-.6.19-.91.29-.91.3-1.84.62-2.81.89,0-.21,0-.41-.02-.59-.02-.37-.05-.68-.03-.96.01-.14.04-.27.09-.39.99-2.41,1.99-4.81,2.99-7.21,1.01-2.4,2.02-4.8,3.03-7.2-.61-.42-1.14-.71-1.61-.91s-.86-.29-1.2-.3c-.34,0-.63.06-.87.2-1.23.67-1.44,2.88-2.32,4.09-.73-.11-1.44-.23-2.16-.34-2.15-.34-4.29-.67-6.57-1.02.4-2.87.68-4.9.96-6.93-.72,1.36-1.35,2.71-1.83,4.05-.12.34-.23.67-.33,1.01-.3,1.01-.52,2.02-.61,3.03-.03.34-.05.68-.05,1.02-.01,1.02.1,2.05.37,3.09.36,1.39,1,2.81,1.97,4.27.2.3.4.61.6.92.79,1.23,1.53,2.51,2.17,3.85.16.33.31.67.46,1.01.59,1.37,1.06,2.79,1.36,4.3.46,2.26.53,4.69.05,7.35.77-.11,1.52-.21,2.27-.3,1.86-.22,3.66-.4,5.35-.71,2.37-.44,4.54-1.15,6.43-2.62.54-.42,1.06-.9,1.55-1.46,1.06-1.2,2.03-2.44,2.92-3.72.44-.64.87-1.28,1.28-1.94.81-1.31,1.55-2.65,2.23-4.02,3.06-6.15,4.91-12.83,6.74-19.54Zm-65.46-403.28c-2.9-3.37-3.27-2.63-1.24.72,2.11,3.19,11.22,19.13,15.36,22.19,2.54,1.88-11.63-19.89-14.12-22.91Zm113.54,416.43c-5.22-2.52-9.46-4.89-13.93-6.65-4.77-1.88-9.76-3.52-14.6.09-1.88.32-3.76.65-4.59.79-1,2.39-1.52,4.02-2.35,5.48-.77,1.35-1.87,2.5-2.83,3.74.41.31.81.62,1.22.93,2.88-3.58,5.76-7.17,8.64-10.75.32.67,1.11,1.61.9,1.98-4.02,7.08-9.29,12.54-18.24,13.66.08-.96.11-1.5.17-2.03.04-.36.12-.72.18-1.13-.31.11-.75.12-.86.32-5.57,9.55-11.04,19.17-20.09,26.04-.62.47-1.4,1.02-1.62,1.7-2.15,6.5-4.67,12.93-6.05,19.6-.63,3.06-1.91,6.84.74,10.13.36.45-1.33,3.66-1.97,3.62-5.11-.27-6.2,4.98-9.79,6.71-2.47,1.19-4.7,2.85-7.04,4.3-.54-.73-.35-.46-.88-1.19,1.66-1.48,3.31-2.97,5.24-4.69-.36-1.49-.76-3.16-1.17-4.84-7.91,2.29-10.04,8.08-4.45,13.72-4.71,1.06-8.99,2.02-13.26,2.99-1.19.96-2.28,2.56-3.59,2.77-6.33,1.03-11.42,4.88-17.24,7.01-1.2.44-3.01.06-4.21-.56-2.9-1.51-5.54-3.49-8.4-5.09-4.65-2.6-7.51-1.8-11.87,1.34-6.38,4.59-13,8.92-19.85,12.77-5.1,2.87-9.46,5.36-13.04,10.89-5.71,8.82-13.89,16.1-21.34,23.71-3.15,3.22-7,5.8-10.73,8.39-3.15,2.19-6.64,2.52-10.02.27-3.11-2.07-3.12-4.63.19-6.15,9.08-4.19,13.89-12.01,17.77-20.6,2.36-5.23,4.09-10.77,6.76-15.82,4.1-7.76,4.35-15.68,2.75-24.04-.46-2.39.39-5.03.71-8.34l-7.04-.48c.02-.29,3.06-2.9,7.55-9.63,5.52-8.27,10.5-17.5,16.13-24.27,10.2-12.27,21.06-24.05,32.18-35.5,4.59-4.72,10.49-8.23,16.01-11.97,6.01-4.07,10.92-8.93,14.09-15.57,3.99-8.36,8.26-16.58,12.25-24.56-6.09-6.52-7.39-16.82-4.72-22.11,3.29-6.53,10.69-11.59,16.32-10.05,2.76-2.77,5.91-4.96,7.67-7.96,1.57-2.67,2.15-6.24,2.15-9.42,0-2.65-1.37-5.33-2.27-7.95-3.03-8.91-1.8-18.01-1.11-27.04.22-2.83,3.6-3.89,5.86-1.71,1.77,1.7,3.05,4.1,4.01,6.41,2.26,5.43,4.2,11,6.17,16.24,3.55.78,4.98-1.21,6.06-3.35,4.71-9.31,9.27-18.7,14.02-27.98.38-.75,1.83-.96,2.78-1.42l-4.15,17.56c-1.11,2.67-5.27,11.74-6.34,13.54-2.71,4.51-4.71,9.96-8.55,13.18-5.66,4.74-9.14,10.65-12.82,16.78-1.34,1.64-2.78,3.2-4.26,4.71-.75.77-1.46,1.58-2.28,2.28-8.37,7.12-10.28,5.56-13.27,6.51-.38-.56-.34-.51-.72-1.08,1.62-1.89,3.23-3.79,4.76-5.59-2.49.82-4.76,1.56-7.45,2.44,0,1.01.01,2.32.02,3.85-1.44.23-2.97.47-4.44.7.59,5.98-1.21,11.22,2.07,15.49.61-.17.63-.17,1.24-.35.28-3.44.56-6.89.85-10.33.54-.06,1.09-.12,1.63-.17.38,2.84,1.28,5.74,1,8.51-.37,3.72,1.32,5.23,5.67,7.04-3.22-5.41-1.99-9.84-1.79-15.13,1.88,1.9,3.11,3.15,4.43,4.47,3.23-4.73,6.22-9.01,9.06-13.39.09-.14,1.09-1.8,1.61-2.43,1.45-1.78,3.02-2.77,5.09-4.68.02-.02.48-.44.89-.96.94-1.4,1.15-1.75,1.86-2.82,6.08-9.17,11.77-18.61,17.45-28.04,1.07-1.77,1.42-3.97,2.1-5.98,0,0-.02,0-.02-.01.59-1.35,1.15-2.72,1.7-4.08.02,0,.03.02.05.03,3.06-5.48,6.12-10.95,9.63-17.24,3.74,8.16-1.26,14.19-2.79,20.73,0,0,0,0,0,.01-.76,1.86-1.16,3.85-2.19,5.59-.2.34-.41.66-.62.99-5.62,5.12-9.19,11.66-12.74,18.64-3.13,2.23-5.16,5.65-7.08,8.9-4.61,3.18-10.43,12.6-10.71,12.95-2.69,3.35-5.51,6.73-7.42,10.53-1.88,3.75-.11,5.55,4.25,5.71l2.55-9.49c.98-3.06,3.15-5.72,3.97-6.81.71-.97,1.42-1.94,2.13-2.91.92-1.34,3.63-4.52,3.69-4.47,5.37-5.32,8.49-8.28,10.91-9.76.25-1.92,3.7-7.86,6.85-14.13,1.57-3.13,8.3-12.29,8.49-12.53,3.83-5.14,8.44-10.01,7.7-17.15-.74-7.11-6.24-9.51-11.93-11.65-7.92-5.13-16.65-7.53-26.02-7.97-4.92-.23-9.82-.65-14.74-.95-10.44-.65-20.88-1.32-31.33-1.89-3.55-.19-7.15.19-10.66-.21-19.25-2.17-38.32.44-57.45,1.89-7.08.54-14.21.5-21.27,1.18-5.01.48-9.92,1.91-14.92,2.54-9.53,1.19-19.1,2.04-28.63,3.17-7.64.91-15.26,1.97-22.88,3.04-13.64,1.93-26.78-.25-39.61-4.79-13.22-4.67-26.07-10.08-37.74-18.06-14.05-9.6-25.6-21.65-35.72-35.2-1.77-2.37-3.74-4.59-5.39-7.04-3.59-5.33-5.76-9.94-7.6-17.12-1.21-4.72.63-10.31.07-15.4,3.31-.98,5.19.86,6.51,3.04,2.54,4.23,5.19,8.47,7.02,13.02,5.29,13.2,14.59,22.64,26.29,30.28,16.12,10.53,33.79,17.32,52.33,21.71,6.77,1.6,14.2,1.51,21.2.86,22.06-2.06,43.74-6.57,65.41-11.08,7.99-1.66,15.44-4.51,23.05-7.24,8.54-3.07,14.19-18.71,9.01-28.19-4.63-8.48-9.81-16.66-14.77-24.96-4.05-6.79-7.95-13.67-12.23-20.32-6.41-9.96-13.73-19.39-19.51-29.69-8.48-15.11-15.99-30.77-23.8-46.25-1.14-2.27-1.8-4.82-2.41-7.31-3.01-12.25-8.61-23.29-15.2-33.97-3.1-5.03-5.46-10.53-7.97-15.9-.76-1.64-.89-3.57-1.31-5.36-.46-1.35-.08-1.99,1.38-.86,1.5,1.34,3.06,2.62,4.5,4.02,3.97,3.86,8.17,7.52,11.76,11.71,6.67,7.79,13.32,15.65,19.34,23.94,14.15,19.45,27.83,39.25,41.89,58.77,8.64,11.99,16.45,24.59,22.84,37.91,3.7,7.7,8.65,14.78,12.96,22.19,2.08,3.58,3.5,7.62,5.99,10.86,6.48,8.43,13.54,16.41,20.06,24.81,5.06,6.52,11.52,10.67,19.38,12.67,3.77.96,7.7,2.08,11.51,1.94,11.31-.39,22.7,1.02,33.87-2.65,8.71-2.86,15.2-9.58,15.53-18.71.46-12.81.16-25.61-2.09-38.29-.07-.39-.15-.78-.2-1.17-1.43-11.06-2.72-22.13-4.31-33.16-2.79-19.4-8.19-38.21-13.79-56.91-2.05-6.86-6.22-13.22-10.14-19.34-6.81-10.63-14.65-20.63-21.17-31.42-6.65-11.01-11.14-23.17-14.24-35.74-2.23-9.03-4.66-18.01-7.55-26.85-4.15-12.69-8.54-25.35-13.73-37.65-4.06-9.62-9.51-18.66-14.22-28.01-1.4-2.77-11.98-19.29-11.13-27.53.12-.95,3.23.98,4.08,1.77,16.21,15.11,32.18,30.61,44.99,48.67,7.8,11,13.67,23.56,19.12,35.98,5.14,11.72,8.95,24.01,15.43,35.19,5.13,8.85,9.76,17.98,14.62,26.99.19.35.39.71.6,1.02,1.42,2.09,2.73,3.16,4.53,4.57,1.11.83,3.81-4.1,4.09-6.15,1.38-10.18,2.35-20.42,3.48-30.64.52-4.72,1.24-9.41,1.63-14.14,1.61-19.85,4.66-39.71.2-59.59-3.24-14.46-6.65-28.89-9.6-43.41-2.79-13.71-5.13-27.52-7.57-41.3-1.2-6.8-2.31-13.62-3.17-20.47-.21-1.7.68-3.54,1.07-5.32l1.32-.18c1.9,2.87,4.06,5.59,5.66,8.62,9.55,18.16,19.36,36.21,28.24,54.7,3.28,6.83,4.16,14.79,6.32,22.17,3.85,13.17,5.66,26.56,5.88,40.29.12,7.66,2.1,15.29,2.43,22.96.36,8.22-.13,16.49-.41,24.73-.58,16.75-.78,33.53-2.09,50.23-.96,12.18-3.82,24.2-5.14,36.36-1.73,15.81-5,31.57-2.32,47.65.77,4.64.19,9.51.87,14.17,2.64,18.1,2.53,36.66,7.86,54.3,4.33,14.35,6.52,29.31,12.94,43.11,3.57,7.66,8.37,14.31,13.49,20.81,5.09,6.47,6.28,13.75,6.22,21.71-.12,17.68-7.9,31.95-19.03,44.87-.39.45-1.02.79-1.2,1.3-2.88,7.99-10.09,12.84-14.37,19.78-5.02,8.14-9.8,16.43-15.4,25.87,2.97-.87,4.76-1.39,6.54-1.92,2.26-.68,4.64-2.2,6.77-1.9,7.8,1.1,15.17-.97,22.72-2.04,6.6-.94,10.97,3.09,11.28,9.76.04.98.12,2.04-.19,2.95-3.33,9.97-.07,19.88.19,29.82.1,4,2.63,6.34,5.73,7.61,5.15,2.11,6.6,6.07,6.34,10.91-.21,4.07-1.05,8.11-1.74,13.12Zm-181.16-194.43c1.22-5.41,2.41-10.57,3.51-15.75.24-1.13.34-2.39.1-3.5-1.33-6.28-4.54-11.67-8.02-16.96-1.44-2.19-17.75-32.8-24.67-44.72-6.91-11.92-15.65-25.33-17.21-28.05-4.18-7.25-21.37-39.05-27.16-48.56-7.21-11.84-17.26-25.65-18.3-27.47-.92-1.61-1.49-3.29.32-1.83,1.58.91,3.22,1.86,4.87,2.81-6.72-11.26-15.82-19.87-16.01-20.05-2.71-2.68-4.65-2.86-.6,5.37,1.88,3.25,2.95,5.3,4.21,7.23,7.35,11.31,13.56,23.09,16.85,36.35,2.33,9.4,6.2,18.24,11.74,26.35,2.77,4.05,4.74,8.65,7.07,13.01,2.61,4.87,4.86,9.98,7.89,14.58,7.18,10.89,14.75,21.53,22.12,32.3,3.01,4.41,6.09,8.79,8.8,13.39,4.29,7.31,8.12,14.89,12.47,22.16,4.09,6.83,5.59,14.08,3.27,21.59-1.46,4.73-4.34,11.14-7.09,13.56-1.4,1.1-4.26,3.32-8.17,4.51-8.67,1.96-12.41,2.62-21.1,4.48-14.62,3.14-29.15,7.13-43.94,8.88-11.42,1.35-22.96,4.21-34.63,2.17-7.54-1.32-15.26-2.29-22.48-4.7-14.24-4.75-27.87-10.94-40.48-19.34-8.21-5.46-15.26-11.76-20.42-20.19-1.01-1.65-2.16-3.21-3.34-4.75,0-.04,0-.07-.02-.11-.99-2.27-2.11-4.47-3.1-6.74-.27-1.5-5.12-10.56-5.3-10.27-3.11,5.2,1.53,17.05,3.03,20.84,1.82,4.61,8.9,13.75,9.97,15.09.67.84,5.81,6.6,6.66,7.68,10.4,13.05,24.17,21.94,38.17,30.48,2.96,1.81,7.13,3.58,10.36,4.93,7.57,3.13,11.51,3.24,1.35-1.56-11.77-6.06-18.19-10.39-26.41-15.56-3.1-1.95-6.02-4.26-8.76-6.71-4.51-4.05-7.72-7.56-12-11.84-3.04-3.03-7.76-8.66-8.29-9.33-3.45-3.7-6.6-9.18-6.34-12.08.05-.51,3.64,5.34,8.83,11.15,6.47,7.25,14.99,15.02,17.09,16.91,10.04,9,21.78,15.11,34.33,19.46,17.98,6.23,36.57,7.92,55.49,5.42,4.88-.64,9.76-1.35,14.66-1.68,6.69-.45,13.43-.26,20.09-.91,7.83-.76,15.59-2.17,23.39-3.22,13.77-1.85,25.19-7.96,34.82-18.01,1.14-1.19,1.75-2.89,2.38-6.82Zm98.96,100.3c1.13-4.78,1.97-8.32,2.77-11.87.07-.3-.22-.67-.48-1.39-.8.92-1.47,1.7-2.93,3.38-1.2-5.81-3.42-10.42-.21-14.67-1.48-2.07-2.63-3.68-4.13-5.78-.65,5.51-.37,9.97,1.46,14.61,1.75,4.44,2.18,9.4,3.53,15.71Zm6.35-500.9c1.19,1.76,5.32,11.11,6.81,14.68,2.57,6.16,5.71,12.11,7.86,18.41,2.67,7.81,4.81,15.83,6.74,23.86,1.93,8.04,3.3,16.21,4.98,24.32.16.76,1.8,11.79,1.87,12.82.16,2.84.33,5.68.6,8.51.42,4.44,1.12,8.85,1.7,13.27.38,5.44.76,7.23,1.32-.19.29-7.77-2.99-32.22-2.79-32.28-1.12-7.12-2-14.3-3.43-21.36-1.79-8.83-3.35-17.81-6.29-26.27-2.57-7.4-6.87-14.2-10.49-21.22-1.89-3.65-3.98-7.2-5.98-10.8-.97-1.26-2.03-3.58-2.89-3.74Zm1.71,194.71c-1.1,2.5.3,3.84.56,6.25.74,3.32,10.71-6.72,13.19-11.88,5.81-12.08,7.8-25.36,9.22-38.43,1.9-17.5-.7-35.03-2.73-52.46-1.26-10.78-2.46-21.61-4.67-32.21-2.7-12.92-6.19-25.68-9.8-38.39-2.09-7.37-5.11-14.46-7.61-21.72-.24-.7-3.65-8.61-4.23-9.93-2.23-5.05-4.26-10.18-6.38-15.29-1.01,1.97-1.16,3.86-.8,5.64,3.42,16.84,6.84,33.68,10.42,50.49,3,14.09,6.84,28.03,9.16,42.23,1.93,11.82,2.71,23.9,3.09,35.9.51,15.64-1.49,31.13-4.31,46.54-2.01,11.01-.49,22.75-5.13,33.25Zm-15.73,212.81c1.92.03,3.9-.45,5.76-1.01,3.2-.95,6.35-2.09,9.48-3.26,2.31-.86,4.56-1.89,8.14-3.4,1.93-.98,3.76-2.94,4.86-4.68,4.3-6.8,8.75-13.82,6.95-22.63-1.97-9.65-3.91-19.31-5.78-28.98-.17-.86.26-1.83.29-2.75.13-4.66.41-9.34.24-13.99-.12-3.29-.82-8.72-2.22-15.64-.11-.55-.2-1.12-.25-1.68-2.17-23.25-4.63-46.47-10.37-69.18-1.28-5.06-3.4-13.01-5.6-16.56,0,0-3.22-6.47-9.35-12.96-4.13-4.38-7.3-9.74-10.5-14.9-3.82-6.16-7-12.72-10.88-18.84-2.14-3.37-12.25-34.75-16.33-38.44-1.23-1.37-3.22-2.59-3.55-4.15-.82-3.93-2.02-7.67-3.59-11.34-2.52-5.91-4.81-11.92-7.49-17.75-2.14-4.65-13.14-21.6-16.62-26.87-2.56-3.69-7.77-10.97-9.42-13.21-1.16-1.88-.12-2.08,1.21-.91,2.56,2.24,8.85,11.08,11.92,15.03,4.79,6.21,10.67,16.48,12.44,19.27,1.89,2.98,4.1,5.77,5.99,8.75,1.77,2.8,3.27,5.77,4.95,8.64,1.73,2.95,2.57,5.15,4.58,7.78,1.91,2.5,1.98,4.29,5.31,8.98,1.9,2.68,2.79,4.69,3.3,7.14.39,1.89,2.21,7.16,3.09,8.85,3.96,7.6,6.41,11.25,10.4,18.83.45.86.7,2.21.85,3.66.18,1.43-3.72-2.79-3.68-.75.3,3.58.48,7.15,7.27,7.7,2.11,2.84,4.12,5.56,6.13,8.27,1.71,2.24,3.35,3.31,1.92.1-.4-1.22-1.43-3.32-2.04-4.43-2.28-4.13-4.99-8.05-6.97-12.31-4.4-9.46-8.61-19.01-12.62-28.64-3.39-8.14-6.13-16.56-9.64-24.64-5.28-12.17-11.7-23.73-20.55-33.74-9.4-10.63-18.96-21.11-28.46-31.65l-8.69-8.16c-.59-.55-1.56-.05-1.42.75.13.74.63,1.75,1.01,2.77,2.1,5.88,8.89,17.3,10.3,20.05,5.48,10.72,11.2,21.36,15.89,32.43,5.65,13.33,10.51,27.03,15.06,40.78,3.19,9.65,5.81,19.46,8.27,29.32,4.14,16.59,13.77,30.12,23.41,43.69,6.85,9.65,13.97,19.16,17.8,30.54,1.83,5.42,3.16,11,4.79,16.49.28.95,6.26,24.15,8.81,35.25,3.85,16.77,5.52,33.81,7.25,50.86.54,5.29.41,10.67,1.18,15.92,1.87,12.74-.54,23.93-10.7,32.65-.54.46-2.74,2.3-4.49,3.16-4.22,1.84-12.12,1.91-20.2,2.56-1.18.09-16.26.08-19.37.11-1.79.02-3.57,1.2-5.36,1.86.05.67.11,1.33.16,2,5.67.87,33.16,3.21,37.07,3.27Zm59.51,47.71c.53-.14,1.05-.29,1.58-.43-.76-4.37-.41-9.37-2.51-12.96-3.75-6.41-8.86-12.07-16.01-15.38-3.7-1.88-4.9-2.74-.42-2.04,1.57.35,3.16.34,4.73.69,8.41,1.11,11.09.61-.52-2.01-5.68-1.17-11.37-2.34-17.8-3.66-2.76-.55-5.03-.37-5.49-.87-1.67-1.82-.32-4.85,2.11-5.3,6.1-1.13,11.45-3.36,15.55-8.82,1.98-3.35,1.61-8.9,3.36-14.26,1.52-5.82,3.63,2.67,5.47,13.69,1.3,10.84,9.23,16.71,16.65,23.04-2.69-6.38-6.06-12.42-9.11-18.61-.93-1.9-5.45-14.07-7.05-17.72-2.34-5.35-6.32-10.09-5.43-16.52.09-.64-.34-2.81-.64-3.5-.48-1.41-1.37-2.62-1.6-.99-.35,7.04.33,13.28-2.56,20.41-1.35,2.86-1.52,5.08-4.25,8.82-4.73,6.47-8.67,8.95-10.52,10.05-6.24,3.69-14.62,7.76-18.89,7.57-6.18-.28-12.51.64-18.79.84-2.62.09-3.91,1.15-4.5,4.33,2.42.5,4.62,1.22,6.85,1.34,2.95.16,5.96.12,8.88-.31,9.62-1.42,19.12-.46,28.42,1.79,4.77,1.15,10.19,1.84,13.07,7.05.57,1.03,2.26,1.98,3.45,2.01,5.78.15,7.5,5.33,10.11,8.69,2.84,3.66,3.97,8.64,5.84,13.05Zm-39.71,66.07c2.64-2.85,5.28-5.69,7.92-8.54.72.34.68.32,1.4.67-.37,2.57-.73,5.13-1.11,7.79,6.56-10.58,13.01-20.96,19.45-31.33,1.1-2.06,2.32-4.79-1.16-.8-3.73,4.97-7.59,10.73-11.26,15.4-4.24,8.41.48-7.29-1.57-4.31-.79.73-1.46,1.33-2.06,1.83.31-.04.62-.06.94-.05-4.79,6.8-8.98,12.76-13.18,18.71-1.57,2.32-2.04,4.09.65.64Zm3.91,11.36c-4.37,3.95-4.79,5.52-2.36,9.53.82-3.31,1.53-6.19,2.36-9.53Zm-13.14,4.18c.58.49.55.47,1.13.95,4.03-2.38,1.42-7.18,4.32-9.97,1.66-2.65.93-4.3-1.17-.98-.18.28-.33.58-.45.89l-3.83,9.12Zm-9.37,4.2c.03.29.06.57.1.85.15,1.1.41,2.11.79,2.99.38.89.89,1.66,1.55,2.31.33.32.7.61,1.11.87s.86.48,1.35.66c.74.28,1.59.47,2.54.58-2.35-2.61-4.7-5.22-7.43-8.26Zm-110.42,177.99c-2.26.79-4.29,1.49-5.89,2.05,5.42-10.18,10.78-20.26,16.48-30.97-.36-3.81-.81-8.55-1.24-13.15-5.29-.27-6.82,2.1-6.41,6.19.64,6.38-1.6,12.01-4.42,17.53-1.61,3.16-3.2,6.38-4.3,9.74-3.85,11.8-9.56,22.06-22.1,27.31,3.7,2.61,6.74,2.4,9.74.12,6.92-5.27,14.49-9.9,18.13-18.81Zm13.41-15.67c-.03-1.19-.49-2.4-1.3-3.79-1.34,3.19-2.68,6.38-4.11,9.79l-1.46,3.49c1.79-1.57,3.19-2.9,4.25-4.09,1.86-2.08,2.66-3.73,2.62-5.39Zm23.49-14.06c-3.18-.66-4.85-2.58-7.25,0-.96,1.03-3.38.73-5.15.97-.98.13-1.98.12-3.85.21,1.79,2,2.93,3.27,4.63,5.17,3.76-2.06,7.17-3.93,11.62-6.36Zm38.19-9.06c-6.6,2.33-7.41,3.61-4.95,7.47,3.28-1.2,6.96-2.05,4.95-7.47Zm13,.54c-.23-1.95-.42-3.65-.72-6.24-3.37,2.35-5.84,4.07-8.31,5.79.23.48.45.96.68,1.43,2.57-.3,5.14-.6,8.35-.98Zm4.35-1.26c2.28-1.33,4.56-2.67,7.26-4.24-.38-1.48-.83-3.26-1.65-6.44-3.34,2.64-5.78,4.57-8.66,6.84,1.19,1.5,2.12,2.67,3.04,3.84-.03.02-.06.04-.09.05l.11-.03s-.01-.02-.02-.02Zm24.42-21.64c-2.53,1.15-5.34,3-3.33,6.66,3.36-1.63,6.6-3.2,10.01-4.87-1.32-4-4.48-2.8-6.68-1.8Zm79.13-67.4c.61.02,1.21.03,1.82.05.09-3.51.32-7.02.22-10.52-.08-2.7-1.19-4.79-3.96-6.04-6.2-2.81-7.68-8.44-8.24-14.57-.28-3.1-1.03-6.16-1.2-9.26-.23-4.2-1.83-8.36.44-12.67,1.01-1.92.72-4.65.66-7-.11-4.7-3.82-7.88-8.45-7.46-.78.07-1.59.2-2.32.48-6.04,2.33-12.28,2.33-18.63,1.91-2.07-.14-4.23.72-6.32,1.24-2.46.62-4.85,1.59-7.34,2-5.1.85-5.86,2.67-2.66,7,3.17,4.29,2.69,11.15-1.39,13.41-3.41,1.88-7.24,3.07-10.99,4.25-2.78.88-5.72,1.7-8.59,1.7-2.09,0-4.38-1.04-6.2-2.21-1.85-1.18-3.04-2.53-5.74-1.47-1.55.61-3.91-.85-6.17-1.45-1.75,3.32-3.54,6.7-5.32,10.08-1.05-5.14,1.92-10.05-1.46-15.24-.86,1.75-1.6,3.24-2.33,4.74-4.1,8.34-7.83,16.88-12.45,24.91-2.2,3.82-5.81,7.03-9.31,9.85-4.59,3.7-10,6.39-14.53,10.15-4.84,4.03-9.07,8.79-13.56,13.24-3.21,3.18-6.21,6.63-9.67,9.51-8.84,7.33-14.47,17.18-21.18,26.19-3.77,5.05-7.43,10.17-11.21,15.2-.39.52-2.03,3.06-3.57,4.04,6.96,1.91,10.84-1.06,15.87-4.71,3.59-2.6,7.16-5.23,10.72-7.86l3.73-3.18c.99-.98,1.4-1.94,2.34-2.5,7.04-4.17,10.79-10.99,14-17.95,4.31-9.36,11.61-15.67,20.02-22.25.92,2.71,2.31,4.9,2.26,7.04-.18,6.91,1.98,13.21,4.06,19.6,2.48,7.63-.34,13.19-8.68,16.7.15-2.54,1.15-5.82-3.39-4.57.65-5.52,1.04-10.22,1.84-14.84.24-1.41,1.52-2.68,2.44-3.91,1.81-2.41,1.84-2.38.41-7.08-1.17,1.56-2,2.7-2.87,3.81-.82,1.05-1.62,2.89-2.55,2.97-4.27.37-5.03,3.73-6.73,6.61-2.54,4.3-5.6,8.3-8.96,13.18-.63-2.23-1.04-3.69-1.17-4.14-4.24,2.52-8.6,5.12-12.97,7.72-.03.02-.07.04-.1.07l-2.96,2.44c-4.78,4.39-9.45,8.93-14.59,12.86-6,4.58-6.34,4.34-5.68,12.04.32.19.67.56.96.53,7.82-1.03,7.79-1.04,8.01,6.93.03,1.08.59,2.15,1.12,3.97,1.71-1.5,2.93-2.57,4.17-3.66-1-1.03-1.64-1.7-2.27-2.35.31-.43.46-.88.76-1.02,3.58-1.66,7.09-3.52,10.8-4.83,6.8-2.4,13.73-4.47,20.6-6.67.68-.22,1.43-.28,2.06-.59,1.86-.92,4.01-3.09,5.47-2.69,8.24,2.25,17.61-1.62,25.92,4.94-3.86,3.13-7.36,5.97-11.33,9.19,4.97-.92,9.43-1.15,13.94-3.59,4.82-2.61,9.2-6.64,15.17-6.92.73-.03,1.82-.39,2.11-.93,2.73-5.25,8.28-7.35,12.84-9.41,5.73-2.58,8.08-6.3,9.52-11.72,1.06-3.98,2.77-7.78,3.92-11.74,1.16-3.98,1.75-8.2,6.37-9.97.73-.28,1.34-.81,1.75-1.47,5.41-8.73,13.28-15.88,16.58-25.96.61-1.86,1.7-3.57,2.63-5.31,1.77-3.29,4.48-4.84,8.27-4.61,1.71.1,3.43-.14,5.87-.27-2.27-2.94-5.47-4.96-2.82-8.51,2.58-3.45,4.69-7.49,10.28-6.15,3.45.82,7.06.94,10.52,1.72,6.63,1.51,9.01,4.59,9.31,11.52.08,1.83.08,3.67.11,5.5Z"/>
  </g>
</svg>