<?xml version="1.0" encoding="UTF-8"?>
<svg xmlns="http://www.w3.org/2000/svg" viewBox="326.084 -0.5 493.593 510.23">
  <g transform="translate(1145.761, 0) scale(-1,1)">
    <path fill="currentColor" d="M537.5,316.854c-1.629,0.078-4.651,0.144-6,0.438
		c-1.349,0.294-2.973,1.398-4.198,2.666c-1.225,1.269-3.979,4.563-7.155,7.709c-3.179,3.146-5.682,5.939-6.282,6.363
		c-0.6,0.427-2.594,2.477-4.354,5.137c-1.761,2.659-2.911,5.283-3.562,6.646c-0.652,1.36-0.077,2.866,1.5,1.49
		c1.577-1.377,3.064-2.313,5.5-2.917c2.435-0.606,4.252-0.46,4.927-0.417c0.97,0.061,0.949,0.557,0.219,0.717
		s-2.503,1.026-0.938,2.48c1.565,1.453,3.237,2.146,4.208,1.853c0.971-0.293,1.462-0.569,2.375,0.094
		c0.913,0.667,2.034,0.71,1.948,2.793c-0.086,2.08-0.196,3.601-0.229,4.23c-0.033,0.627-0.315,1.443-0.072,3.55
		c0.242,2.106,0.571,3.613,1.947,5.187c1.377,1.577,2.146,2.21,3.031,5.033c0.885,2.824,1.188,6.841,1.25,8.221
		c0.062,1.376-0.382,2.047-1.406,3.927c-1.024,1.876-1.988,3.703-1.572,5.833c0.416,2.127,0.281,4.217,0.281,4.217
		s-1.251,0.053-1.854,0.533c-0.604,0.479-1.177,1.344-1.177,1.344s-0.116,2.25,0.062,2.583c0.178,0.333,0.86,1.106,1.041,1.29
		c0.182,0.187,0.158,0.623-0.104,1.166c-0.263,0.544-0.618,1.494-0.053,1.971c0.566,0.477,0.884,1.069,1.021,1.5
		c0.138,0.43,0.782,0.166,0.782,0.166s0.075,1.157,0.062,1.471c-0.014,0.31-1.04,0.8-0.688,1.593
		c0.352,0.79,0.574,0.987,0.562,1.427c-0.013,0.44,1.208,0.646,1.208,0.646s0.059,0.99,0.062,1.551
		c0.004,0.56-1.289,1.557-0.281,2.02c1.008,0.467,0.652,1.196,1.136,1.273c0.483,0.076,1.354,0.437,1.354,0.437
		s0.019,1.337-0.031,2.167c-0.049,0.83,0.496,1.967,0.865,2.156c0.369,0.19,1.016,0.577,0.927,1.311
		c-0.089,0.736,0.203,1.553,0.677,1.96c0.474,0.406,1.374,0.623,1.792,0.613c0.418-0.007,0.423,0.243,0.479,0.656
		c0.056,0.417,0.325,0.37,0.593,0.47c0.269,0.101,0.229,0.721,0.188,1.53c-0.042,0.813,0.17,1.083,0.802,1.407
		c0.632,0.323,1.621,0.626,2.188,1.303s9.208,8.99,9.208,8.99s1.438,0.229,2.469,0.02s2.237-0.723,3.678-0.676
		c1.439,0.043,2.697,0.02,2.697,0.02s2.468,2.33,3.323,3.26c0.855,0.931,1.368,2.077,2.312,3.573
		c0.944,1.497,3.051,5.014,3.708,6.187c0.657,1.177,0.978,2.717,1.698,5.294c0.721,2.573,1.718,6.627,1.844,7.427
		c0.126,0.797,0.959,1.37,1.719,2.146c0.76,0.773,1.961,1.934,2.344,2.333c0.383,0.396,0.876,1.624,1.125,2.437
		c0.249,0.813,3.332,10.494,4.188,12.761s4.411,6.939,8.031,6.376c2.501-0.393,3.354-3.126,3.354-3.126c0,0-0.258-8.624-0.053-10.49
		c0.206-1.867,1.615-10.53,1.97-12.373c0.354-1.847,1.396-6.25,1.864-10.75c0.47-4.53,0.625-8.834,0.625-8.834s0.14-4.56-1.604-9.5
		c-1.744-4.943-6.517-17.233-9.031-24.523c-2.515-7.286-4.326-12.772-5.739-17.79c-1.413-5.017-3.65-10.437-4.084-11.396
		c-0.433-0.956-0.527-1.336-0.521-2.74c0.007-1.399,0.358-6.236-0.188-8.25c-0.546-2.013-2.408-3.533-3.688-6.073
		s-1.854-3.706-1.969-4.81s0.007-3.61-0.073-4.627c-0.079-1.017-0.417-2.273,0.073-3.073c0.49-0.797,3.31-5.127,5.052-7.644
		c1.743-2.52,4.334-4.979,4.334-4.979s0.16-1.15-0.315-2.157c-0.317-0.676-1.141-1.375-1.552-1.817
		c-1.013-1.091-2.229-1.86-4.152-2.813c-0.44-0.219-0.988,0.521-3.238,0.136c-0.94-0.161,0.514,2.654-0.943,3.622
		c-2.087,1.387-7.209,1.083-8.956,0.684c-0.971-0.222-1.873-0.925-2.652-1.11c-2.12-0.503-3.554-0.378-4.676-0.675
		c-1.298-0.345-5.051-2.849-5.979-3.815c-1.484-1.545-1.205-3.323-1.865-4.116c-0.216-0.259,0.237-2.104-0.145-2.459
		c-1.339-1.246-3.38-2.872-3.891-3.395C540.178,317.224,539.129,316.776,537.5,316.854z M528.677,354.667
		c1.171,0.899,4.124,2.526,5.021,3.156c0.896,0.63,1.153,0.82,1.26,1.437c0.107,0.617,0.056,1.794,0.062,3.021
		c0.008,1.229-0.146,4.18-0.146,4.18l-1.989,1.78c0,0-0.518-1.181-1.125-2.24c-0.577-1.003-1.529-2.61-2.354-5.083
		C528.596,358.49,528.677,354.667,528.677,354.667z"/>
    <path fill="currentColor" d="M526.734,349.054c0.408,2.586,0.072,3.267,0.222,5.906
		s1.104,4.573,1.852,5.887s1.452,2.12,2.094,3.563s1.497,2.437,1.584,3.26c0.088,0.827,0.411,0.707,0.911,0.337
		c0.5-0.373,1.375-1.197,1.545-1.521s0.216-1.17,0.195-2.003c-0.02-0.833-0.157-4.807-0.082-5.214
		c0.075-0.409-0.047-1.109-0.047-1.109s4.358,1.62,5.05,1.34c0.69-0.276,6.704-5.443,6.704-5.443s-2.345,2.503-1.992,5.1
		c0.236,1.747,1.035,2.737,2.148,3.381c1.113,0.643,2.13,0.789,2.87,1.856c0.739,1.066,2.376,3.563,2.376,3.563
		s-12.855,0.223-13.352,0.906c-0.497,0.684-0.732-0.06-1.753,0.637s-2.938,2.264-3.087,4.79c-0.148,2.53,1.039,6.03,2.088,7.384
		c1.048,1.353,2.062,2.396,3.591,3.696c1.529,1.304,3.541,3.03,4.175,4.227c0.633,1.2,1.111,2.347,0.856,4.387
		s-0.511,4.38,0.093,5.77c0.603,1.394-0.226,3.284-1.258,5.41c-1.032,2.127-2.733,4.011,0.729,5.104
		c3.463,1.094,6.378,1.153,8.2,3.4c1.822,2.246,3.871,3.739,4.622,7.083c0.752,3.344,1.383,4.523,5.354,7.113
		c3.972,2.59,6.62,3.597,8.139,7.25s4.102,8.05,4.708,14.293c0.607,6.244,0.262,10.557,0.235,12.688
		c-0.007,0.496,1.95,0.689,3.355,3.666c0.313,0.664,0.862,2.834,0.562,4.25c-0.179,0.844,0.162,1.94,1.236,3.057
		c0.293,0.304,1.475,1.38,1.728,2.634c0.24,1.189-0.895,2.33-0.788,3.58c0.024,0.276-0.043,1.43-0.842,0.34
		c-0.576-0.787-1.918-5.927-3.291-9.43c-0.771-1.971-1.106-3.927-1.684-4.964c-0.551-0.993-1.361-1.11-1.376-1.127
		c-1.156-1.31-2.104-2.023-2.464-2.3c-0.359-0.273-0.692-1.24-0.811-2.263c-0.117-1.023-0.886-4.653-2.258-8.684
		s-3.244-6.863-4.266-8.533s-2.324-3.357-3.258-4.471s-2.889-2.937-2.889-2.937s-3.863,0.447-5.521,0.493
		c-1.657,0.044-3.107,0.124-3.107,0.124s-0.984-0.884-2.394-2.3c-1.411-1.417-4.176-3.604-4.529-3.967
		c-0.353-0.367-1.212-1.317-1.63-1.767c-0.418-0.45-0.952-1.153-1.449-1.384c-0.497-0.229-1.298-0.52-1.654-0.764
		c-0.356-0.243-0.659-0.439-0.686-0.88c-0.026-0.437,0.066-1.029,0.026-1.336c-0.039-0.304,0.037-0.717-0.217-0.74
		c-0.254-0.027-0.421-0.127-0.505-0.311c-0.084-0.183-0.082-0.71-0.274-0.736c-0.193-0.026-0.676-0.1-1.053-0.19
		c-0.376-0.086-0.887-0.286-1.229-0.687c-0.343-0.403-0.432-0.92-0.466-1.109c-0.035-0.187,0.101-0.797-0.05-1.141
		c-0.15-0.343-0.49-0.646-0.726-0.776c-0.236-0.13-0.642-0.56-0.779-0.934c-0.138-0.37-0.289-1.013-0.254-1.467
		c0.036-0.449,0.053-1.34,0.055-1.54c0.002-0.199-0.003-0.52-0.003-0.52s-0.257-0.05-0.57-0.144
		c-0.314-0.097-0.701-0.123-0.872-0.273c-0.17-0.153-0.253-0.366-0.346-0.557c-0.092-0.189-0.211-0.41-0.461-0.536
		c-0.249-0.124-0.615-0.363-0.603-0.544c0.012-0.18,0.157-0.593,0.289-0.786c0.132-0.197,0.377-0.554,0.387-0.83
		c0.01-0.28-0.047-1.09-0.057-1.207c-0.009-0.113-0.014-0.356-0.014-0.356s-0.639-0.094-0.854-0.22
		c-0.216-0.13-0.36-0.273-0.369-0.511c-0.01-0.236-0.105-0.52-0.214-0.687c-0.107-0.163-0.316-0.563-0.371-0.776
		c-0.055-0.217,0.037-0.63,0.396-0.974c0.359-0.347,0.406-0.613,0.378-0.863c-0.027-0.253-0.098-1.073-0.098-1.073
		s-0.498,0.163-0.692-0.023c-0.194-0.183-0.283-0.613-0.419-0.793c-0.135-0.177-0.419-0.653-0.627-0.813s-0.42-0.536-0.383-0.877
		c0.036-0.336,0.284-0.803,0.438-1.199c0.154-0.394,0.234-0.891,0.063-1.107c-0.172-0.22-0.858-0.933-1.016-1.199
		c-0.157-0.268-0.174-0.53-0.152-0.801c0.021-0.27,0.017-1.439,0.028-1.623c0.011-0.184,0.023-0.27,0.324-0.644
		c0.301-0.373,0.699-0.93,1.041-1.063c0.34-0.13,1.659-0.453,1.659-0.453s0.091-0.104,0.081-0.677
		c-0.011-0.576-0.091-2.453-0.261-3.21c-0.17-0.753-0.216-1.937-0.116-2.246c0.099-0.307,0.414-1.653,0.848-2.427
		s1.197-2.17,1.367-2.537c0.17-0.363,0.756-1.189,0.808-2.093c0.053-0.9-0.031-2.2-0.092-2.687c-0.061-0.487-0.291-2.87-0.539-3.9
		c-0.248-1.033-0.662-2.97-1.139-3.94c-0.476-0.973-1.132-1.953-2.31-3.303c-1.179-1.354-1.728-3.044-1.883-3.684
		c-0.155-0.644-0.395-2.13-0.386-2.92c0.01-0.793,0.221-2.884,0.256-3.384c0.036-0.496,0.108-1.619,0.122-2.583
		c0.015-0.96,0.174-1.797-0.353-2.316c-0.527-0.517-1.188-0.903-1.621-1.134c-0.432-0.229-0.535-0.453-1.094-0.37
		c-0.558,0.08-1.046,0.474-1.671,0.427c-0.626-0.05-1.363-0.22-2.008-0.623c-0.646-0.403-1.374-0.76-1.783-1.23
		c-0.407-0.47-0.739-1.029-0.602-1.479c0.137-0.45,0.705-0.783,1.175-0.913c0.469-0.127,1.365-0.337,0.923-0.653
		c-0.442-0.313-0.829-0.23-1.398-0.264c-0.57-0.03-2.631-0.033-4.496,0.521c-1.866,0.553-3.229,1.113-4.447,2.152
		c-1.219,1.044-1.652,1.45-2.181,1.254c-0.528-0.2-0.691-0.833,0.05-2.46c0.74-1.623,2.19-4.486,3.675-6.573
		c1.485-2.087,2.346-3.153,3.435-4.184c1.09-1.03,1.685-1.512,2.266-2.145s3.35-1.524,3.35-1.524s4.302,9.242,6.444,13.662
		C525.88,345.753,526.326,346.463,526.734,349.054z"/>
    <path fill="currentColor" d="M540.066,382.873c0,0,1.98,2.587,3.136,2.533
		c1.155-0.057,2.035-0.439,2.751-0.193c0.715,0.247,2.062,1.127,3.162,0.771c1.101-0.356,1.431-1.733,1.018-2.337
		c-0.412-0.606-1.677-1.899-1.677-1.899L540.066,382.873z"/>
    <path fill="currentColor" d="M551.646,380.427l-0.027,1.953l-1.073,0.743l-1.513-1.733
		L551.646,380.427z"/>
    <path fill="currentColor" d="M563.431,389.043c0,0-0.404,1.693-0.191,2.261
		c0.212,0.566,1.43,0.522,0.958,1.316c-0.473,0.793-0.688,1.547-0.795,2.313c-0.106,0.77-0.114,2.217,0.682,0.637
		c0.795-1.58,1.886-3.224,1.887-3.681C565.971,391.434,563.431,389.043,563.431,389.043z"/>
    <path fill="currentColor" d="M554.607,333.333c0,0-3.367,12.704-4.444,15.53
		c-1.077,2.83-2.837,5.18-5.037,6.753c-2.199,1.57-4.344,3.931-4.344,3.931s-3.591-2.467-5.521-3.277
		c-1.931-0.807-3.637-2.873-3.637-2.873s-0.044-3.453,0.854-4.443c0.897-0.986,1.432-2.1,0.488-1.693
		c-0.942,0.403-2.381,1.75-2.381,1.75s-1.503,3.487-1.605,2.953c-0.478-2.503-1.015-4.1-1.295-4.649
		c-0.665-1.307-1.504-2.627-1.996-3.021c-0.755-0.603,0.794,3.08,0.794,3.08l0.347,2.273l-1.758-1.097l-3.394-3.724l-3.372-6.503
		l-4.295-2.606c0,0,0.643-2.13,2.087-3.854c0.953-1.139,1.872-2.025,2.878-2.942c0.503-0.458,1.123-1.191,1.643-1.69
		c1.827-1.754,3.709-3.878,4.552-4.841c0.844-0.964,1.687-1.004,2.649-0.241c0.964,0.763,5.63,4.149,8.794,5.715
		s6.788,2.417,7.766,2.13c0.977-0.286,3.301-1.143,3.301-1.143l1.395,1.5l3.079,0.844L554.607,333.333z"/>
    <path fill="currentColor" d="M566.014,394.6c0,0-1.229-0.767-0.641,0.104
		c0.587,0.873,1.057,1.4,1.239,1.873c0.183,0.474,0.249,0.817,0.067,1.724c-0.182,0.907-0.097,1.86-0.098,2.604
		c0,0.74,0.423,1.193,0.482-0.037c0.059-1.232,0.326-2.986,0.283-3.529C567.305,396.793,566.43,395.043,566.014,394.6z"/>
    <path fill="currentColor" d="M587.491,475.63c0.23,1.057,1.16,1.687,1.162,0.667
		c0.001-1.021,0.736-3.144,0.309-4.517c-0.428-1.37-0.92-2.764-1.173-3.477c-0.252-0.714-1.756-3.313-2.103-4.447
		c-0.347-1.13-0.882-2.517-0.882-2.517s-0.243,1.813-0.181,2.856c0.062,1.044-0.205,1.58,0.696,4.407
		C586.222,471.43,587.305,474.77,587.491,475.63z"/>
    <path fill="currentColor" d="M543.893,364.193c-3.301,1.4-8.22,5.39-9.005,8.307
		c-0.786,2.917,0.655,6.437,2.352,8.453s5.099,3.854,7.706,3.757c2.606-0.097,3.624-0.747,3.885-1.627
		c0.262-0.876,0.284-1.05,1.607-1.446c1.323-0.394,1.847-1.094,2.154-2.32c0.309-1.229,1.108-1.893,1.371-0.746
		c0.338,1.477,0.945,1.533,0.91-0.357c-0.036-1.89-0.067-4.536-0.802-6.343c-0.733-1.811-2.199-4.894-3.811-6.443
		C548.824,364.043,547.192,362.793,543.893,364.193z"/>
    <path fill="currentColor" d="M551.132,382.167c-0.211,0.3-0.533,0.536-0.797,0.446s-0.413,0.24,0.216,0.736
		c0.629,0.497,1.003,0.943,1.03,0.067C551.608,382.54,551.561,381.563,551.132,382.167z"/>
    <path fill="currentColor" d="M549.472,384.627c0.333,0.293,1.015,0.823,0.609,1.189
		c-0.405,0.363-0.747,0.644-1.261,0.487c-0.514-0.157-0.537-0.534-0.206-0.773c0.332-0.243-0.022-0.767,0.236-0.967
		C549.109,384.366,549.139,384.333,549.472,384.627z"/>
    <path fill="currentColor" d="M558.07,385.307c0.456,0.55,1.465,1.687,1.534,3.13s0.291,1.99,0.111,3.101
		c-0.179,1.109-0.45,2.383-0.028,3.456c0.421,1.073,0.709,1.854,0.744,3.224c0.035,1.366-0.02,4.184,0.593,2.323
		s1.287-4.79,1.317-5.674c0.03-0.88,0.439-1.573,0.564-1.833c0.124-0.257,0.153-0.89-0.199-1.637
		c-0.354-0.75-0.418-1.486-0.464-2.05c-0.046-0.56,0.023-1.65-0.745-2.62c-0.77-0.97-1.649-1.724-2.408-1.843
		C558.332,384.764,557.578,384.713,558.07,385.307z"/>
    <path fill="currentColor" d="M561.26,385.276c0.627,0.59,1.938,1.134,1.612,1.927
		c-0.326,0.79-0.546,1.764,0.271,2.271c0.818,0.503,1.285,0.819,1.492,1.427c0.206,0.606,0.877,0.89,1.313,1.64
		c0.437,0.753,0.741,2.054,1.369,2.906c0.627,0.857,1.525,1.634,1.886,1.767c0.359,0.134,1.04-0.816,1.04-0.816
		s-0.29-0.526-0.278-1.12c0.012-0.59-0.344-0.616-0.774-1.533c-0.432-0.913-1.049-1.826-1.265-2.644
		c-0.215-0.816-0.639-1.706-1.443-2.616c-0.804-0.91-1.655-1.354-1.845-1.993c-0.189-0.637-0.061-0.837-1.389-1.351
		C561.922,384.627,560.223,384.3,561.26,385.276z"/>
    <path fill="currentColor" d="M577.196,465.486c1.194,0.113,1.911-3.47,1.985-4.246
		c0.453-4.757-0.064-9.3-0.283-13.98c-0.15-3.196,2.136-4.347,3.393-6.786c1.106-2.147,2.677-4.497,3.25-6.874
		c0.237-0.977-0.073-1.989,0.017-2.93"/>
    <path fill="currentColor" d="M589.945,440.017
		c-0.47-4.066-2.294-6.497-4.627-9.67c-0.592-0.804-0.961-2.563-1.23-3.53c-0.799-2.866-2.818-5.456-3.678-8.286
		c-0.435-1.431-1.957-2.16-2.795-3.297c-0.248-0.34-0.023-0.927-0.118-1.313c-0.074-0.304-0.965-1.293-0.873-1.383"/>
    <path fill="currentColor" d="M576.724,412.677
		c-1.67-2.613-4.077-4.977-5.228-7.934c-0.277-0.713-1.309-1.144-1.4-2.003"/>
    <path fill="currentColor" d="M570.418,399.804c-0.097,0.646-0.13,1.086-0.377,1.446
		c-0.247,0.356-0.426,0.264-0.682-0.547c-0.257-0.81-0.595-1.479-0.122-2.267c0.473-0.783,1.062-1.616,0.909-2.007
		c-0.153-0.393-1.514-0.5-1.527-0.236c-0.016,0.26-0.277,1.167-0.479,1.58s-0.416,1.576,0.032,2.363
		c0.448,0.783,1.217,1.17,0.803,1.54c-0.164,0.146-0.166,0.52-0.468,0.767c-0.461,0.377-1.225,0.627-1.225,0.627
		s0.522,0.46,1.225,0.149c0.703-0.307,0.823-1.213,1.083-0.77c0.261,0.443,0.725,0.68,0.805,0.047
		c0.08-0.631,0.332-0.863,0.448-1.69C570.96,399.98,570.507,399.213,570.418,399.804z"/>
    <path fill="currentColor" d="M556.337,364.537c0.884,0.336,1.526,0.939,1.435,1.739
		c-0.092,0.797-0.527,1.287-1.428-0.203C555.442,364.58,554.744,363.934,556.337,364.537z"/>
    <path fill="currentColor" d="M554.198,356.38c-0.332,0.71,0.555,0.851,0.747,0.44
		C555.12,356.446,554.419,355.91,554.198,356.38z"/>
    <path fill="currentColor" d="M589.71,439.833c-0.321-0.166,0.189,1.927-0.765,4.36
		c-0.955,2.43-2.23,4.883-3.019,8.173s-0.209,2.46,0.299,3.733s2.161,4.087,2.968,6.284c0.807,2.196,0.983,2.826,0.974,4.223
		s0.394,3.267,0.606,1.474c0.212-1.797,2.214-11.57,2.396-13.97c0.183-2.4,0.728-1.891,1.346-4.547
		c0.618-2.653,0.693-4.487,0.827-5.493c0.135-1.007,0.715-1.943,0.693-0.471c-0.022,1.477-0.045,3.53-0.313,5.184
		c-0.268,1.653,0.716-1.786,0.85-3.26c0.134-1.477,0.11-3.247,0.11-3.247s-1.039-2.413-1.446-3.873
		c-0.407-1.457-1.017-3.604-1.407-4.88c-0.392-1.276-1.861-5.344-2.515-7.44c-0.652-2.093-5.271-15.279-6.15-17.836
		s-3.355-9.997-3.8-11.08c-0.445-1.084-0.832-2.644-1.055-3.317c-0.224-0.67-1.453-4.053-1.453-4.053s2.091,7.236,2.688,8.91
		c0.598,1.67,2.363,7.717,3.585,11.34c1.221,3.62,5.255,15.666,6.302,18.757c1.046,3.09,1.931,5.826,2.586,7.733
		c0.655,1.906,0.801,2.449,0.64,3.013c-0.16,0.563-0.308,1.097-0.277,2.187c0.029,1.09,0.219,2.377-0.41,2.504
		c-0.629,0.13-1.75,0.59-1.953-0.347C591.811,442.953,590.78,440.384,589.71,439.833z"/>
    <path fill="currentColor" d="M538.11,419.326c-0.305,0.69-0.713,1.273-0.713,1.273s0.511,0.11,0.902-0.14
		c0.392-0.247,0.818-0.134,1.334-0.43c0.516-0.3,0.289-0.584-0.124-1.037S538.497,418.45,538.11,419.326z"/>
    <path fill="currentColor" d="M535.051,410.243c-0.178-0.503-0.241-0.703-0.568-0.21
		c-0.328,0.493-1.062,1.101-0.533,1.25c0.529,0.146,0.987,0.55,0.987,0.55s0.625,0.087,0.57-0.463S535.229,410.743,535.051,410.243z
		"/>
    <path fill="currentColor" d="M530.584,401.16c-0.416,0.224-1.071,0.916-0.133,0.727
		c0.938-0.187,1.517-0.061,1.492-0.646c-0.024-0.587,0.161-1.847-0.49-1.117C530.802,400.854,530.999,400.934,530.584,401.16z"/>
    <path fill="currentColor" d="M528.082,343.557c-1.222-0.457-2.306,1.594-0.829,2.077
		C528.729,346.113,529.574,344.116,528.082,343.557z"/>
    <path fill="currentColor" d="M523.025,330.721c-1.328,0.226,0.123,1.336,0.514,1.191
		C523.931,331.768,524.364,330.493,523.025,330.721z"/>
    <path fill="currentColor" d="M516.644,332.436c-1.332,0.879-1.571,1.761-2.724,2.567s-2.373,2.897-3.636,4.69
		s-2.551,4.037-3.266,5.394c-0.714,1.356-0.924,2.347,0.555,1.187c1.479-1.16,3.938-2.146,5.581-2.537
		c1.643-0.39,2.776-0.25,4.107-0.312c1.332-0.063,1.234,0.136,1.494,0.603s0.166,0.971-0.517,1.153
		c-0.683,0.187-1.293,0.62-0.282,1.407c1.011,0.786,1.53,1.62,2.768,1.496c1.238-0.123,2.604-0.496,3.131,0.277
		c0.525,0.77,1.745,1.593,1.7,0.54c-0.044-1.057,0.655-2.95-1.184-4.044c-1.839-1.093-3.604-0.616-3.464-2.313
		c0.14-1.693-0.181-3.853-1.071-5.489C518.945,335.417,517.453,331.901,516.644,332.436z"/>
    <path fill="currentColor" d="M528.799,354.493c0,0,0.031-2.213,0.061-2.847c0.03-0.633,0.641-1.573,1.357-2.456
		c0.718-0.884,1.492-1.704,2.45-2.127c0.958-0.42,1.918-0.15,0.812,1.413c-1.106,1.566-1.723,5.08-1.723,5.08
		s3.316,2.337,4.815,2.884c1.499,0.543,4.275,3.097,4.275,3.097s-1.615,0.903-2.668,1.96c-1.053,1.06-2.585,4-2.585,4l-0.149-6.947
		L528.799,354.493z"/>
    <path fill="currentColor" d="M550.513,388.44c-0.482,1.113-1.37,2.909-1.772,4.076
		c-0.403,1.17-0.581,2.354,0.076,3.98c0.656,1.623,2.086,5.173,3.03,7.1c0.943,1.93,1.931,3.566,2.153,3.986
		c0.224,0.417,1.072,1.28,2.405,2.2c1.332,0.917,2.503,2.113,3.304,2.637c0.802,0.521,2.383,0.304,0.805-1.383
		c-1.579-1.684-2.746-2.28-2.797-5.057c-0.052-2.777,0.242-6.744,0.062-8.684c-0.181-1.943-0.943-3.987-0.236-5.703
		c0.707-1.717,0.676-4.004,0.029-4.837s-1.764-2.54-2.783-2.467c-1.021,0.076-3.436,0.264-1.915,1.207s2.863,2.453,1.06,2.116
		S551.095,387.097,550.513,388.44z"/>
    <path fill="currentColor" d="M578.712,387.203c0,0,0.296-1.653-0.961-2.91c-1.257-1.253-3.139-4.26-3.139-4.26
		s0.038,1.59,1.456,3.097C577.487,384.634,578.4,385.687,578.712,387.203z"/>
    <path fill="currentColor" d="M528.615,402.653C530.168,402.537,529.901,401.866,528.615,402.653"/>
    <path fill="currentColor" d="M528.486,402.713C530.045,402.7,529.858,402.017,528.486,402.713"/>
    <path fill="currentColor" d="M528.614,402.653C529.542,402.344,529.464,402.38,528.614,402.653"/>
    <path fill="currentColor" d="M529.919,402.217C528.43,402.25,528.62,402.927,529.919,402.217"/>
    <path fill="currentColor" d="M530.082,402.174C528.319,402.323,528.511,403,530.082,402.174"/>
    <path fill="currentColor" d="M527.169,397.963C529.749,397.733,529.634,397.033,527.169,397.963"/>
    <path fill="currentColor" d="M527.216,397.924C529.608,397.656,529.413,396.967,527.216,397.924"/>
    <path fill="currentColor" d="M529.814,407.724C531.73,407.434,531.53,406.753,529.814,407.724"/>
    <path fill="currentColor" d="M529.789,407.847C532.038,407.474,531.705,406.83,529.789,407.847"/>
    <path fill="currentColor" d="M531.935,412.986C533.572,412.717,533.254,412.066,531.935,412.986"/>
    <path fill="currentColor" d="M531.797,412.906C533.906,412.653,533.707,411.974,531.797,412.906"/>
    <path fill="currentColor" d="M532.118,413.023C533.853,412.543,532.948,412.187,532.118,413.023"/>
    <path fill="currentColor" d="M533.463,417.77C535.844,417.116,535.449,416.51,533.463,417.77"/>
    <path fill="currentColor" d="M533.499,417.903C536.171,417.097,535.792,416.49,533.499,417.903"/>
    <path fill="currentColor" d="M538.785,425.604C540.895,424.793,540.519,424.187,538.785,425.604"/>
    <path fill="currentColor" d="M538.881,425.637C541.343,424.606,540.854,424.05,538.881,425.637"/>
    <path fill="currentColor" d="M536.604,421.313C538.614,420.733,538.337,420.083,536.604,421.313"/>
    <path fill="currentColor" d="M536.628,421.51C538.987,420.427,538.456,419.913,536.628,421.51"/>
    <path fill="currentColor" d="M537.929,420.406C536.535,421,536.888,421.613,537.929,420.406"/>
    <path fill="currentColor" d="M537.929,420.406C536.499,421.137,536.99,421.656,537.929,420.406"/>
    <path fill="currentColor" d="M537.808,420.497C536.624,421.083,537.14,421.57,537.808,420.497"/>
    <path fill="currentColor" d="M537.382,420.566C536.539,421.15,537.076,421.547,537.382,420.566"/>
    <path fill="currentColor" d="M537.492,420.66C536.413,421.24,536.999,421.634,537.492,420.66"/>
    <path fill="currentColor" d="M536.676,421.373C537.344,421.403,537.049,420.833,536.676,421.373"/>
    <path fill="currentColor" d="M536.709,421.38C537.778,421.097,537.28,420.594,536.709,421.38"/>
    <path fill="currentColor" d="M533.479,417.81C534.363,417.837,534.107,417.213,533.479,417.81"/>
    <path fill="currentColor" d="M533.556,417.826C534.821,417.65,534.535,417.02,533.556,417.826"/>
    <path fill="currentColor" d="M534.91,417.127C535.527,417.28,535.333,416.684,534.91,417.127"/>
    <path fill="currentColor" d="M533.915,417.68C533.358,417.51,533.489,418.104,533.915,417.68"/>
    <path fill="currentColor" d="M533.913,417.653C533.271,417.474,533.357,418.113,533.913,417.653"/>
    <path fill="currentColor" d="M534.026,417.613C533.271,417.51,533.442,418.144,534.026,417.613"/>
    <path fill="currentColor" d="M539.327,425.37C538.573,425.387,538.855,425.97,539.327,425.37"/>
    <path fill="currentColor" d="M539.174,425.437C538.5,425.437,538.805,425.986,539.174,425.437"/>
    <path fill="currentColor" d="M532.383,412.844C531.725,412.707,531.886,413.323,532.383,412.844"/>
    <path fill="currentColor" d="M532.412,412.84C531.655,412.68,531.83,413.31,532.412,412.84"/>
    <path fill="currentColor" d="M530.447,407.54C529.638,407.41,529.812,408.047,530.447,407.54"/>
    <path fill="currentColor" d="M530.461,407.606C529.441,407.47,529.619,408.137,530.461,407.606"/>
    <path fill="currentColor" d="M530.456,407.576C529.396,407.366,529.464,408.05,530.456,407.576"/>
    <path fill="currentColor" d="M530.629,407.486C529.442,407.34,529.518,408.03,530.629,407.486"/>
    <path fill="currentColor" d="M530.91,407.366C531.717,407.497,531.421,406.894,530.91,407.366"/>
    <path fill="currentColor" d="M530.023,402.24C528.596,402.316,528.785,402.97,530.023,402.24"/>
    <path fill="currentColor" d="M530.294,401.92C528.738,402.316,529.085,402.913,530.294,401.92"/>
    <path fill="currentColor" d="M530.257,401.844C529.241,402.167,529.669,402.687,530.257,401.844"/>
    <path fill="currentColor" d="M530.321,401.83C529.168,402.273,529.847,402.653,530.321,401.83"/>
    <path fill="currentColor" d="M530.698,401.813C529.027,402.3,529.342,402.917,530.698,401.813"/>
    <path fill="currentColor" d="M529.521,402.42C528.229,402.377,528.439,403.026,529.521,402.42"/>
    <path fill="currentColor" d="M529.138,402.437C528.153,402.35,528.295,403.01,529.138,402.437"/>
    <path fill="currentColor" d="M527.045,397.89C528.558,398.03,528.455,397.347,527.045,397.89"/>
    <path fill="currentColor" d="M527.062,397.89C529.381,397.82,529.374,397.097,527.062,397.89"/>
    <path fill="currentColor" d="M527.01,397.967C527.768,398.18,527.642,397.53,527.01,397.967"/>
    <path fill="currentColor" d="M542.666,425.707C540.411,426.764,540.847,427.323,542.666,425.707"/>
    <path fill="currentColor" d="M542.702,425.493C540.333,427.073,541.052,427.42,542.702,425.493"/>
    <path fill="currentColor" d="M542.602,425.613C540.573,427.453,541.344,427.68,542.602,425.613"/>
    <path fill="currentColor" d="M542.536,426.097C540.396,426.707,540.994,427.227,542.536,426.097"/>
    <path fill="currentColor" d="M542.141,426.384C540.74,426.78,541.023,427.437,542.141,426.384"/>
    <path fill="currentColor" d="M541.968,426.507C540.433,426.89,540.667,427.576,541.968,426.507"/>
    <path fill="currentColor" d="M540.867,427.04C541.999,426.72,541.509,426.21,540.867,427.04"/>
    <path fill="currentColor" d="M540.73,427.09C541.876,426.83,541.429,426.287,540.73,427.09"/>
    <path fill="currentColor" d="M540.831,426.967C541.932,426.557,541.404,426.083,540.831,426.967"/>
    <path fill="currentColor" d="M540.622,426.983C541.901,426.677,541.558,426.076,540.622,426.983"/>
    <path fill="currentColor" d="M540.961,427.193C542.148,426.63,541.663,426.12,540.961,427.193"/>
    <path fill="currentColor" d="M541.22,427.097C542.249,426.616,541.825,426.063,541.22,427.097"/>
    <path fill="currentColor" d="M541.221,427.17C542.557,426.363,541.949,425.967,541.221,427.17"/>
    <path fill="currentColor" d="M541.738,426.587C542.859,426.063,542.362,425.56,541.738,426.587"/>
    <path fill="currentColor" d="M542.027,426.37C543.193,425.743,542.635,425.31,542.027,426.37"/>
    <path fill="currentColor" d="M542.215,426.207C543.238,425.587,542.628,425.217,542.215,426.207"/>
    <path fill="currentColor" d="M542.179,426.17C543.258,425.503,542.674,425.104,542.179,426.17"/>
    <path fill="currentColor" d="M542.63,425.816C541.893,426.38,542.514,426.674,542.63,425.816"/>
    <path fill="currentColor" d="M542.386,426.153C541.2,426.587,541.712,427.08,542.386,426.153"/>
    <path fill="currentColor" d="M542.32,426.24C541.167,426.61,541.591,427.156,542.32,426.24"/>
    <path fill="currentColor" d="M653.53,353.17c0,0,10.633,0.384,13.51,0.193c2.873-0.193,9.646-2.193,13.663-4.757
		s12.577-6.77,16.144-9.859c3.566-3.087,4.02-3.894,4.997-5.584c0.977-1.691,1.093-2.926-1.434-1.442
		c-2.523,1.483-9.24,4.692-11.66,5.923c-2.417,1.229-7.156,2.847-7.156,2.847s-8.047,4.729-9.98,5.637
		c-1.93,0.906-11.116,4.477-13.356,5.153S653.53,353.17,653.53,353.17z"/>
    <path fill="currentColor" d="M587.179,332.82c0,0-1.362,1.393-1.81,2.347c-0.447,0.956-0.545,2.083-1.593,1.683
		c-1.048-0.399-2.458-0.937-3.12-0.92s-1.347,0.16-1.281-0.456c0.066-0.617-0.36-1.917-0.992-2.644
		c-0.633-0.728-2.294-2.507-2.294-2.507l5.936,1.473L587.179,332.82z"/>
    <path fill="currentColor" d="M596.141,321.124c0,0,1.645-1.188,1.9-1.362c0.255-0.174,2.548-0.533,3.686-0.541
		c1.139-0.008,5.224,0.56,9.2,1.494c3.977,0.934,8.724,3.027,10.783,3.729s6.3,1.63,9.144,2.364c2.84,0.735,7.79,0.47,9.843,0.399
		c2.054-0.07,6.11,0.24,8.761-0.05c2.649-0.289,6.593-0.821,10.593-1.826c3.997-1.004,8.783-3.159,12.844-6.865
		c4.06-3.707,8.876-6.921,10.717-8.823c1.836-1.902,4.896-5.491,5.953-6.978s0.653-4.295-2.533-1.301
		c-3.19,2.993-8.867,7.646-12.997,10.386c-4.13,2.741-9.106,5.858-13.646,6.693c-4.537,0.834-12.547,1.851-19.483,1.037
		c-6.94-0.813-15.446-3.256-23.313-6.278c-7.866-3.023-12.113-4.676-13.686-5.077c-1.573-0.401-2.936-0.709-2.936-0.709
		s-1.589-1.442-2.882-2.533c-1.294-1.091-2.646-3.825-2.329-4.751c0.315-0.927-2.948,1.061-2.948,1.061l-8.442,4.067l-4.023,2.138
		c0,0-0.754,1.949-1.289,3.332c-0.534,1.383-1.854,3.897-1.854,3.897l10.782,3.615L596.141,321.124z"/>
    <path fill="currentColor" d="M581.717,294.789c0,0-0.182-3.689,0.639-9.441c0.818-5.751,1.653-9.286,3.324-12.495
		c1.671-3.208,3.138-6.483,4.822-8.61c1.684-2.126,4.253-5.495,5.388-8.957c1.135-3.463,2.49-7.689,4.385-11.675
		c1.894-3.986,4.452-9.467,4.933-13.125c0.477-3.657-0.674-6.323-3.46-8.457c-2.787-2.134-6.175-3.755-10.456-7.867
		s-8.413-10.463-8.413-10.463l8.348-5.408c0,0,3.361,4.695,7.138,8.466s7.91,7.403,12.043,9.144
		c4.137,1.739,7.24,2.007,10.307-0.224c3.07-2.231,6.657-5.41,14.894-11.58c8.237-6.17,18.24-10.965,24.59-14.223
		c6.347-3.257,12.023-5.758,15.233-7.966s6.7-5.979,8.794-7.991c2.093-2.012,4.92-2.519,2.37,1.142
		c-2.547,3.66-4.184,6.704-5.841,8.46c-1.656,1.756-7.373,5.483-12.633,8.729c-5.257,3.246-13.646,8.18-22.823,14.092
		c-9.174,5.912-18.027,13.209-24.697,21.467c-2.753,3.411-4.859,8.43-6.557,11.763c-1.586,3.114-3.456,7.307-4.92,11.584
		c-0.847,2.474-0.793,7.439,0.46,9.047c1.254,1.607,3.584,2.766,8.527,2.57c4.946-0.195,11.88-0.674,16.937-2.681
		s11.833-5.62,17.073-9.661c5.24-4.041,6.503-4.536,9.776-7.754c3.273-3.217,4.33-0.4,0.993,2.828
		c-3.333,3.228-9.597,8.678-13.109,11.541c-3.511,2.864-11.7,8.357-17.75,10.398c-6.047,2.041-10.297,2.846-15.91,3.172
		c-5.613,0.324-11.465,0.692-15.903,3.74c-4.439,3.048-3.825,4.025-4.587,7.149s-1.145,7.697-1.145,7.697l-5.598,3.116
		L581.717,294.789z"/>
    <path fill="currentColor" d="M587.994,186.456c0,0-0.089-3.31,1.289-5.514c1.377-2.204,3.887-5.972,5.568-10.072
		c1.682-4.1,2.314-7.936,2.193-10.813c-0.121-2.876-1.242-4.815-2.332-0.363c-1.091,4.452-3.028,8.722-4.21,11.084
		c-1.181,2.362-3.037,4.83-4.865,5.354s-5.645-0.974-7.95-3.948c-2.305-2.974-5.877-7.093-8.676-8.928
		c-2.799-1.835-3.091-1.781-4.036-2.11s-0.984,0.605,0.238,1.75c1.223,1.144,3.832,4.309,6.631,8.797
		c2.798,4.488,4.352,6.784,5.239,7.936s1.556,2.43,1.481,4.189c-0.075,1.76-0.145,5.347-0.149,6.39
		c-0.004,1.043,0.276,2.217,0.276,2.217l9.288-4.589L587.994,186.456z"/>
    <path fill="currentColor" d="M569.162,308.787c0,0,1.115,3.542,5.035,5.027c3.92,1.484,8.329,1.867,18.311,6.262
		c9.982,4.394,15.275,7.627,24.182,11.104c8.904,3.479,17.214,9.362,25.257,10.39c8.047,1.026,15.667,1.646,23.42-1.197
		c7.754-2.84,13.384-5.427,16.504-6.84c3.123-1.409,5.863-1.334,7.403-1.647s1.88,0.952,0.677,2.274
		c-1.203,1.32-6.813,5.003-14.34,9.47c-7.527,4.467-18.667,9.217-24.247,9.05c-5.58-0.166-20.45-4.823-35.057-10.613
		c-14.604-5.79-18.451-7.649-24.556-8.828c-6.104-1.18-12.056-2.535-16.187-3.244c-4.132-0.708-5.473-1.164-5.443-0.163
		c0.029,1,0.42,1.888-0.803,2.988c-1.222,1.101-2.038,1.084-3.377,0.891c-1.34-0.196-2.762-0.229-3.206,0.08
		c-0.445,0.313-0.771-0.104-1.124-0.29c-0.353-0.185-1.667,0.493-1.667,0.493s-0.331-0.513-1.155-0.871s-0.638-1.105-1.883-0.916
		c-1.244,0.19-2.235,1.038-2.26,0.406c-0.023-0.632-0.521-0.256-1.285-0.339c-0.764-0.082-1.232-1.117-1.232-1.117
		s-0.25-0.102-1.241-0.365c-0.991-0.263-2.59-0.485-2.469-1.072c0.122-0.587,0.243-0.971-0.688-1.214s-1.437-0.324-1.68-1.174
		s0.162-1.71-0.722-2.43c-0.885-0.721-0.951-1.459-0.715-2.336c0.237-0.877,0.313-1.637,0.327-2.259
		c0.015-0.623,0.483-1.205,1.142-1.778c0.659-0.573,1.285-1.341,1.758-1.507s0.812-0.435,0.95-0.198
		c0.137,0.237,0.29,0.201,0.293-0.581c0.004-0.781,0.344-4.551-0.134-6.7c-0.478-2.148-2.616-9.28-3.588-12.458
		c-0.972-3.176-3.958-10.481-4.959-13.133c-1-2.65-3.881-10.77-6.077-17.744c-2.196-6.977-4.269-13.641-5.553-24.16
		c-1.284-10.519-1.049-19.984-0.972-26.431c0.076-6.446,0.074-20.327,0.745-30.06c0.671-9.733,0.61-18.727,0.914-27.719
		S524.96,141,518.3,134.26c-6.66-6.74-12.116-10.668-21.278-17.215c-9.163-6.547-20.381-17.151-26.154-24.896
		c-5.773-7.745-9.395-10.347-11.715-13.746c-2.321-3.398-5.684-8.154-10.48-12.53c-4.796-4.375-8.628-6.827-13.103-10.776
		c-4.476-3.949-12.812-12.857-14.74-15.753c-1.928-2.896,0.414-4.066,3.728-1.464c3.312,2.602,7.974,6.417,13.192,9.779
		c5.218,3.361,10.675,6.548,14.519,8.959s6.286,3.508,10.276,8.132c3.99,4.624,5.137,8.185,9.996,7.698
		c4.859-0.487,6.315-4.464,7.752-7.613s3.074-5.674,6.664-9.521c3.591-3.848,7.434-8.013,10.304-11.237
		c2.871-3.224,6.819-7.744,9.527-9.869s4.123-2.806,5.452-3.165c1.33-0.359,2.521,0.01,1.313,1.103s-3.764,4.656-5.198,6.708
		s-7.403,10.295-8.982,12.518c-1.58,2.222-6.71,9.276-8.703,12.583c-1.993,3.306-4.203,7.405-3.649,13.17
		c0.555,5.765,2.987,10.343,7.966,15.703c4.979,5.359,10.784,10.9,17.102,15.129s12.866,8.182,17.394,11.835
		s11.141,12.739,19.423,12.646s12.47-4.065,17.479-8.024s13.915-10.302,25.216-16.014c11.302-5.712,25.291-13.667,37.308-18.863
		c12.018-5.195,20.384-8.124,27.844-9.446s14.287-2.117,19.156-2.487c4.867-0.371,11.107-0.342,16.424-0.056
		c5.32,0.286-2.8,4.805-4.23,6.749c-1.43,1.944-11.613,6.634-15.786,7.207c-4.177,0.572-13.646,2.244-22.59,5.803
		c-8.947,3.56-40.617,19.51-46.894,23.046c-6.275,3.536-26.18,16.547-34.115,24.374c-7.937,7.825-13.17,19.569-16.904,34.514
		c-3.734,14.944-3.734,17.78-3.632,20.854c0.104,3.074,0.831,3.722,1.732,4.302s2.649,0.639,4.089-0.339
		c1.439-0.978,6.88-3.686,10.623-5.457c3.744-1.771,11.191-4.577,18.074-8.08c6.884-3.502,14.81-8.944,20.506-12.814
		c5.697-3.87,12.41-8.453,16.76-11.579c4.354-3.126,11.204-6.033,15.387-7.911c4.184-1.878,8.467-3.912,11.117-4.599
		c2.653-0.688,1.316,1.31-0.07,2.826c-1.387,1.516-4.31,4.336-6.366,4.98s-8.084,3.252-10.153,5.132
		c-2.067,1.88-13.07,12.282-19.53,17.723c-6.46,5.44-10.992,8.974-22.015,15.81c-11.023,6.835-20.3,9.72-27.739,14.422
		s-11.758,8.24-13.321,12.463c-1.562,4.224-2.399,10.04-1.312,16.962c1.088,6.921,3.225,16.133,6.56,24.787
		c3.336,8.655,7.232,19.092,8.503,21.447c1.271,2.354,3.053,3.367,4.855,4.164c1.804,0.797,5.661,2.574,6.39,2.728
		c0.729,0.153,1.994,0.264,5.645-0.632c3.65-0.896,12.355-4.823,16.747-6.828c4.392-2.006,15.185-6.57,18.254-7.799
		c3.067-1.227,8.337-3.104,9.8-3.75c1.464-0.646,4.257-3.111,5.92-4.307c1.667-1.195,5.7-4.658,6.881-5.613
		c1.176-0.953,3.189-2.019,1.916,0.395c-1.273,2.414-5.39,9.102-8.706,11.758c-3.32,2.658-8.867,6.072-13.99,9.025
		c-5.127,2.953-14.891,8.168-22.718,12.227c-7.826,4.06-9.091,4.604-12.184,5.761C576.739,308.456,573.979,309.153,569.162,308.787z
		"/>
  </g>
</svg>