<?xml version="1.0" encoding="UTF-8"?>
<svg xmlns="http://www.w3.org/2000/svg" viewBox="0 0 1729.57 2842.49">
  <g>
    <path fill="currentColor" d="m1252.38,2227.21c-4.72,3.78-10.92,5.72-16.99,8.7-2.27-2.12-4.83-3.72-6.07-6.04-.5-.93,1.62-3.71,3.07-5.13,2.66-2.62,6.2-4.45,8.47-7.33,3.4-4.32,6.77-5.32,11.02-1.73,4.27,3.6,3.91,8.8.51,11.53Zm152.43-608.17c-3.05-4.17-6.66-3.69-8.88,1.55-.76,1.8-1.71,3.68-3.04,5.07-3.54,3.7-7.34,7.16-11.04,10.72-1.05-4.53-2.81-9.03-2.98-13.58-.27-7.16-2.17-11.46-10.42-10.21-2.1.32-4.37-.56-9.89-1.39,3.07,7.51,3.81,14.19,7.53,17.38,6.94,5.95,6.43,12.37,5.73,20.03-1.35,14.97-1.88,30.02-2.88,47.13,2.9-2.62,3.73-3.12,4.23-3.85,8.66-12.73,8.87-12.99,20.1-3.4,5.4,4.61,9.09,2.52,12.45-1.7,3.71-4.66,6.27-9.27,14.17-7.83,7.08,1.3,9.29-5.16,8.32-10.95-3.09-18.48-12.56-34.14-23.41-48.96Zm-157.64,567.7c-1.92.55-4.73,3.28-4.55,4.7.36,2.95,1.71,6.79,3.96,8.29,4.77,3.18,10.3,5.32,15.7,7.41,1.58.61,3.79-.37,5.45-.6.28-7.01-15.35-21.31-20.56-19.8Zm-46.24,91.63c-1.88-1.29-5.63.13-8.53.32,1.07,2.9,1.34,7.32,3.36,8.39,4.89,2.56,10.61,3.55,16,5.17.48-.82.96-1.64,1.44-2.45-4.04-3.89-7.72-8.28-12.28-11.42Zm525.79-630.13c-8,18.19-19.49,20.4-23.96,24.15-8.97,7.53-42.99,28.15-98.26,37.02-6.06.97-29,.69-35.12,1.13-5.03.36-10.08.62-15.11,1.11-4.71.46-9.46,1.23-13.81,3.17-.38.17-.75.35-1.11.54-10.65,2.2-20.66,6.55-29.17,15.79-9.81,10.66-17.75,23.02-26.63,34.54-3.79,4.92-7.13,10.48-11.82,14.36-29.98,24.78-47.31,55.71-48.43,95.18-.17,6.14-1.42,12.59-3.71,18.28-12.8,31.81-25.91,63.5-39.26,95.09-4.76,11.27-7.63,22.13-5.33,34.83,2.01,11.11,1.66,22.91.65,34.25-1.23,13.7-4.69,27.19-6.22,40.88-.39,3.52,2.12,8.01,4.54,11.06,5.51,6.92,12.1,12.97,17.68,19.84,6.79,8.36,5.99,13.68-3.78,16.38-9.4,2.59-11.3,5.96-5.96,13.84,6.64,9.79.09,16.22-5.49,23.44-3.46,4.48-4.99,10.4-7.83,15.43-2.11,3.75-4.23,8.13-7.58,10.43-5.93,4.07-12.58,7.34-19.33,9.87-6.54,2.46-8.94,6.43-8.26,13.09,1.23,12-4.42,19.76-15.09,24.73-3.03,1.41-7.4,4.07-7.7,6.56-2.09,17.81-14.6,22.97-29.35,26.96-3.19.86-6.03,6.61-7.2,10.63-3.11,10.68-6.83,17.96-18.75,23.92-11.19,5.6-22.2,9.81-33.88,13.75-5.4,1.82-10.89,8.06-13.08,13.59-3.37,8.51-8.16,10.26-16.59,10.44-9.65.21-19.44,2.29-28.76,4.97-2.67.77-4.61,6.21-5.74,9.87-4.58,14.83-12.64,19.69-26.99,14.43-8.26-3.02-17.05-6.39-23.59-11.96-11.91-10.14-25.01-9.61-38.24-6.52-5.19,1.21-12.49,6.25-13.37,10.64-2.57,12.85-10.77,14.5-20.77,13.36-7.06-.81-15.31-1.54-20.55-5.55-8.95-6.86-13.96-4.33-21.18,2.34-30.16,27.86-52.78,61.8-77.47,94.1-23.42,30.64-46.36,61.69-70.91,91.4-28.64,34.67-51.92,72.8-76.26,110.38-23.23,35.86-46.37,72.31-74.29,104.37-14.9,17.1-39.52,26.01-60.37,37.5-8.96,4.94-19.44,7.2-29.34,10.34-2.18.69-4.8.01-7.22-.04.27-2.79-.45-6.38,1.01-8.21,3.21-4,7.77-6.89,11.37-10.63,13.9-14.37,27.64-28.9,41.44-43.37-.92-.89-1.84-1.78-2.76-2.67-13.9,11.82-27.56,23.93-41.8,35.31-6.31,5.04-13.65,8.87-20.78,12.78-6.19,3.4-12.51,6.96-19.22,8.91-4.9,1.42-13.47,2.35-15.15-.11-2.78-4.04-3.9-13.09-1.23-16.41,38.65-48.04,50.28-106.64,66.44-163.76,8.74-30.91,7.69-61.17,4.34-92.31-1.05-9.76,4.27-20.12,6.17-30.3,1.81-9.67,4.29-19.48,4.18-29.21-.41-36.48-1.83-72.95-2.71-109.42-.2-8.34.22-16.69.35-25.03.04-2.55,1.05-5.61,0-7.57-12.99-24.15-12.49-42.97.49-66.3,12.16-21.85,21.92-45.13,35.11-66.3,22.84-36.67,47.49-72.22,71.44-108.2,21.05-31.63,42.24-63.18,63.26-94.83,14.13-21.27,27.84-42.82,42.18-63.95,19.91-29.33,39.79-58.69,60.56-87.41,9.11-12.59,20.22-23.76,30.69-35.33,9.76-10.8,14.75-20.94,7.01-36.38-7.43-14.82-9.99-31.7-3.31-48.62,1.78-4.5,1.79-10.47.57-15.26-8.62-33.94-7.32-67.43,6.04-99.65,6.59-15.88-.79-26.57-9.91-36.4-9.51-10.24-20.98-18.69-31.8-27.67-5.35-4.44-9.19-6.27-14.24,2.4-10.24,17.58-26.74,17.82-38.71,1.13-9-12.54-17.86-24.37-34.25-27.49-2.39-.45-4.5-2.57-6.64-4.06-35.49-24.67-71.75-48.32-106.21-74.36-35.28-26.65-68.92-55.48-102.96-83.75-5.92-4.92-10.14-11.85-15.36-17.66-21.99-24.49-49.47-42.53-75.05-62.72-20.71-16.35-43.42-30.14-64.55-45.99-44.97-33.72-96.01-51.44-150.93-60.37-36-5.86-72.13-11.83-107.44-20.75-38.83-9.81-77.08-22.24-115.01-35.19-18.48-6.31-35.89-15.97-53.37-24.92-10.09-5.16-18.04-12.44-15.55-25.97,2.38-12.91,10.94-17.83,22.63-20.35,74.44-16.07,149.03-31.5,223.14-48.97,32.88-7.75,65.48-17.94,96.86-30.42,27.73-11.03,46.5-37.57,39.04-71.44-7.49-34.02-14.35-68.19-22.57-102.03-5.04-20.74-11.91-41.05-18.33-61.44-19.35-61.4-33.1-124.26-38-188.21-5.72-74.63,4.85-147.28,48.75-210.86,36.24-52.48,84.04-87.73,149.86-93.94,16.58-1.56,32.96-5.22,49.5-7.44,7.19-.97,14.78-1.99,21.73-.63,4.77.93,10.61,5.13,12.42,9.39,1.25,2.95-2.39,10.31-5.86,12.52-14.48,9.19-30.06,16.63-44.6,25.73-21.22,13.27-42.8,26.24-62.62,41.43-37.66,28.86-54.55,69.86-63.48,115.11-5.26,26.63-3.5,53.12.88,79.37,8.74,52.25,25.9,101.85,49.45,149.31,18.53,37.36,35.54,75.52,55.26,112.23,21.19,39.46,44.59,77.74,67.42,116.31,3.66,6.19,9.09,11.43,14.15,16.68,18.71,19.41,37,39.27,56.7,57.62,8.42,7.84,19.87,12.44,30.01,18.4,3.51,2.06,9.61,3.04,10.44,5.76,4.3,14.11,17.09,16.91,25.98,21.8,3.74-5.77,7.37-15.96,10.97-15.95,7.31.02,15.28,4.57,21.79,9.01,15.94,10.87,21.94,25.4,21.56,45.85-.31,16.47,7.3,33.27,19.79,46.56,7.06,7.51,11.79,17.17,18.57,25,10.47,12.1,20.28,25.59,33.04,34.75,45.64,32.78,92.35,64.07,138.83,95.67,5.82,3.96,12.64,6.46,20.95,7.51-.94-2.02-1.37-4.61-2.9-5.99-17.55-15.91-24.68-37.09-29.95-59.13-3.75-15.68-5.98-31.77-10.5-47.2-8.18-27.94-17.35-55.59-26.52-83.22-4.09-12.33-8.23-24.81-14.01-36.4-18.11-36.37-47.96-59.88-85.38-74-34.16-12.89-68.89-24.3-102.89-37.6-25.69-10.05-51.06-21.16-75.75-33.46-21.38-10.65-41.66-23.53-62.25-35.71-3.48-2.06-6.68-5.17-9.02-8.5-9.41-13.38-5.31-25.9,10.49-29.78,35.97-8.83,72.12-16.91,108.2-25.3,54.85-12.76,110.01-24.32,164.38-38.86,22.34-5.98,43.21-17.89,64.26-28.1,9.8-4.75,15.83-13.94,16.73-25.07,2.55-31.58,4.61-63.21,6.82-94.82,2.14-30.65,4.83-61.29,6.12-91.98,1-23.94.57-47.96.14-71.94-.82-45.88.49-92-3.81-137.57-5.81-61.51-5.9-122.96-4.83-184.47.54-31.14,1.91-63.08,18.4-91.05,7.32-12.41,16.34-24.44,26.85-34.21,19.72-18.33,41.32-18.39,63.47-2.97,14.55,10.14,29.32,19.98,43.87,30.12,3.4,2.36,7.36,4.83,9.21,8.25,2.3,4.24,4.47,10.05,3.25,14.17-.86,2.9-7.34,5.48-11.5,5.79-8.26.61-16.64-.33-24.96-.84-18.49-1.13-24.75,4.56-25.62,22.66-1.13,23.69,2.38,46.7,7.88,69.71,9.94,41.61,18.91,83.44,28.27,125.18.46,2.03.96,4.1,1.02,6.17,1.81,58.44,13.85,115.76,18.92,173.83,1.77,20.23,2.38,40.57,3.32,60.86,1.25,27.08,2.4,54.17,3.42,81.26,1.18,31.25,2.04,62.52,3.35,93.76.26,6.2,1.44,12.48,3.07,18.49,11.45,42.09,25.07,83.71,34.09,126.31,6.81,32.15,20.04,60.86,34.33,89.71,3.76,7.58,3.13,17.27,6.56,25.09,8.05,18.35,17.43,36.12,26.03,54.24,1.73,3.63,4.14,8.24,3.25,11.61-5.73,21.71,5.69,39.74,12.47,58.42,6.39,17.59,15.6,34.14,23.43,51.22,10.8,23.55,19.91,48.04,32.62,70.49,13.96,24.67,31.67,47.18,46.79,71.24,6.44,10.26,16.91,20.9,5.46,34.92-1.23,1.51,2.52,7.31,4.24,10.99,7.24,15.41,6.18,22.73-3.72,34.37-3.89,4.57-14.24,7.72-8.16,15.84,5.78,7.73,13.53,14.4,25.34,11.67,18.3-4.22,36.71-7.99,55.16-11.46,22.43-4.22,45-7.76,67.43-12.02,4.99-.95,9.54-3.99,14.47-5.44,11.83-3.48,23.75-6.68,35.68-9.81,4.99-1.31,10.05-2.42,15.15-3.21,19.49-3.02,39.03-8.4,58.51-8.22,32,.3,65.22,43.06,61.25,75.37-4.45,36.25-3.73,71.63,15.04,104.7,3.75,6.6,6.77,15.11,6.17,22.41-1.77,21.59,11.3,37.08,19.22,54.89,7.78,17.49,17.37,36.74,9.65,54.27Zm-937.59,736.93c.77-14.54,1.02-28.15-1.36-41.64-5.93,12.9-5.02,33.71,1.36,41.64Zm-9.29-53.6c1.22-.19,2.44-.38,3.67-.58-4.57-28.59-9.14-57.18-13.72-85.78-1,.16-2.01.31-3.01.47-2.33,29.68,3.34,58.1,13.06,85.88Zm-85.17,332.55c-5.73,5.32-12.97,9.02-10.54,20.35q12.41-10.68,10.54-20.35Zm35.7-110.76c-2.87-10.03-1.32-21.39-1.38-32.15-.09-14.82,1.64-29.81-.04-44.42-2.59-22.52-7.15-44.83-11.41-67.13-1.83-9.61-4.65-19.07-7.66-28.39-5.32-16.47-8.82-32.51,3.55-47.72,1.65-2.02,1.93-5.69,1.79-8.54-.6-11.77,2.82-22.42,7.69-32.92,2.2-4.75,3.11-10.09,4.6-15.17-.8-.11-1.6-.23-2.41-.34-8.58,20.52-17.16,41.05-25.99,62.18-11.14-5.17-20.18-11.38-20.24-25.89-.04-9.99-1.92-19.97-3.07-30.87-5.88-.07-6.82,6.49-10.38,9.89-3.38,3.23-7.59,8.69-10.92,8.33-11.11-1.21-11.58,7.16-12.08,13.14-.54,6.35-8.11,15.74,4.98,19.46,1.82.52,4.07,6.08,3.27,8.27-6.07,16.59-1.91,33.2-1.62,49.91.58,33.61.08,67.28-1.22,100.88-.64,16.65-5.1,33.15-5.85,49.81-.69,15.1,1.69,30.32,1.94,45.51.13,7.83-2.72,15.8-1.99,23.5,1.86,19.7-2.61,38.03-9.18,56.23-1.8,5-3.04,10.46-3.14,15.74-.12,6.37,3.23,11.38,9.65,13.56,6.56,2.23,8.84-3.39,11.55-7.08,12.3-16.7,24.31-33.61,36.32-50.52,4.17-5.87,6.46-13.51,15.98-13.53,1.93,0,4.1-3.7,5.73-5.99,3.06-4.31,5.57-9.03,8.74-13.26,11.77-15.69,18.69-31.9,12.79-52.49Zm90.12,3.42c-1.08-2.06,1.37-5.72,1.26-8.61-.48-12.24-.49-24.59-2.35-36.64-.98-6.37-5.4-12.21-9.36-20.59-1.13,4.5-1.97,7.21-2.48,9.98-1.78,9.66-3.1,19.43-5.25,29-1.71,7.62-4.34,15.03-6.65,22.51-1.44,4.67-2.75,9.41-4.66,13.89-3.28,7.68-6.29,15.61-10.73,22.6-3.21,5.05-8.44,12.23-12.95,12.37-11.9.37-15.88,7.8-20.44,16.14-3.07,5.62-7.66,10.5-10.15,16.32-2.4,5.62-4.73,12.24-4.01,18.03,1.54,12.29,5.05,24.35,7.89,36.46.15.65,1.54,1.01,4.07,2.56,4.22-5.56,9.02-11.01,12.86-17.08,18.51-29.23,36.52-58.78,55.23-87.88,5.84-9.08,14.24-16.69,7.72-29.08Zm351.9-819.55c1.62-4.14,3.22-6.35,3.12-8.49-.09-1.96-2.01-3.83-3.12-5.74-2.08,1.51-4.73,2.66-5.96,4.69-.5.83,2.09,3.53,5.95,9.54Zm-49.35,92.31c.63,9.27,2.72,10.55,11.08,7.05,4.1-1.72,7.9-4.41,12.13-5.53,2.2-.58,7.32,1.47,7.28,2.03-1,12.52,10.7,22.65,6.53,35.85-.76,2.41,1.13,7.41,3.2,8.48,2.16,1.12,7.35-.1,8.81-2.07,1.78-2.4,2.69-8.03,1.14-9.89-6.74-8.05-3.05-14.67,1.52-21.39,4.07-5.97,8.46-11.71,12.71-17.55-.51-1.01-1.03-2.01-1.54-3.02-4.52.65-9.02,1.51-13.56,1.84-1.78.13-3.65-.94-5.48-1.47.69-2.17.77-4.9,2.17-6.41,4.05-4.37,8.95-5.61,14.82-3.02,1.6.71,4.14-.7,6.25-1.14-.43-1.85-.39-4.02-1.38-5.49-1.92-2.85-5.31-4.99-6.42-8.03-.98-2.7.3-6.23.58-9.39,2.49.72,5.19,1.04,7.41,2.26,3.19,1.76,6.02,4.17,9,6.3.9-.91,1.81-1.81,2.71-2.72-3.02-4.91-7.34-9.48-8.74-14.82-2.07-7.88-5.61-11.41-13.97-11.77-8.75-.37-15.02-4.07-13.83-15.02.56-5.16-5.03-7.36-8.86-3.91-1.7,1.53-2.51,4.06-3.63,6.19-2.91,5.51-5.94,10.98-8.63,16.6-7.03,14.69-14.15,29.34-20.65,44.26-1.47,3.39-.92,7.85-.66,11.77Zm105.84,32.56c-3.4,7.48,4.66,17.32,12.04,15.66,14.33-3.23,28.41-7.55,42.7-10.99,9.02-2.17,18.22-3.57,25.03-4.88,3.46.89,4.4,1.28,5.38,1.37,7.66.66,15.91-4.25,16.11-9.53.2-5.34-7.07-12.1-14.15-12.6-5.91-.41-11.99.57-17.77-.42-17.78-3.05-36.38-.77-53.27-10.12-8.45-4.67-18.57-6.41-28.03-9.14-5.83-1.68-14.3,1.89-14.93,6.39-.87,6.15,2.47,10.16,8.14,12.51,3.61,1.5,6.89,4.13,10.61,4.97,10.11,2.29,12.73,6.69,8.15,16.78Zm-21.2,242.96c.35-.88,1.09-1.82.97-2.63-.77-5.29-1.51-10.6-2.74-15.79-.49-2.07-2.17-3.85-3.31-5.77-2.22,1.64-5.29,2.82-6.51,5.02-3.91,7-.19,12.8,11.59,19.17Zm-12.56-187.17c2.84-4.27,4.8-9.14,7.28-14.15-1.87-2.06-2.84-3.7-4.28-4.45-.59-.31-2.52,1.06-3.26,2.08-2.55,3.53-5.24,7.05-7.05,10.96-.76,1.65-.18,5.26,1.09,6.17,1.35.96,5.43.58,6.22-.61Zm-168.64-348.22c2.55,5.23,5.05,10.72,8.78,15.08,4.12,4.81,7.84,9.03,4.88,15.29-1.48,14.25,1.03,17.51,17.43,23.07,10.36,3.51,12.68,1.81,11.71-8.86-.22-2.43-.43-5.15-1.61-7.17-9.3-15.89-20.65-30.14-34.95-41.85-1.21-.99-4.19-1.51-5.07-.75-1.12.96-1.82,3.87-1.17,5.19Zm-78.7,403.32c6.43-5.26,13.06-10.59,20.37-14.41,8.97-4.67,10.28-3.55,13.97,5.7,2.78,6.98,5.74,13.9,8.63,20.84,3.53-4.02,4.41-7.2,4.58-10.42.41-7.5-1.02-15.46,1.06-22.4,2.36-7.85,7.77-14.79,11.81-22.14,1.19-2.17,2.01-4.58,3.41-6.58,12.15-17.34,24.1-34.83,36.73-51.81,7.63-10.27,18.43-18.65,24.15-29.77,9.67-18.81,16.55-39.08,24.34-58.83,1.34-3.4,1.39-7.3,2.49-13.56-4.59,3.08-7.58,4.14-9.06,6.25-6.18,8.83-11.28,18.47-17.92,26.92-17.98,22.86-36.77,45.1-54.81,67.92-12.06,15.25-23.52,30.99-34.96,46.73-1.61,2.21-2.26,5.65-2.17,8.47.35,10.61-5.5,16.69-13.22,23.18-14.75,12.39-28.2,26.32-42.19,39.62.84.91,1.67,1.81,2.51,2.72,6.74-6.17,13.22-12.64,20.28-18.42Zm173.21,382.84c-.96-2.11-1.38-4.82-2.97-6.21-5.1-4.48-10.63-8.47-17.13-13.54,4.13-.9,6.6-1.14,8.81-2.04,1.09-.44,2.62-2.61,2.35-3.09-.86-1.53-2.69-3.89-3.77-3.71-8.09,1.36-16.91,1.74-23.86,5.48-5.39,2.91-7.53,1.9-11.26-1.21-2.78-2.32-7.53-6.05-9.34-5.12-10.9,5.59-24.62,1.37-34.35,10.39-4.98,4.61-9.83,4-13.89-1.43-3.98-5.31-4.15-14.48.84-17.44,13.46-7.99,19.52-19.75,22.19-34.78,2.63-14.81,10.31-17.95,23.11-9.82,8.27,5.25,15.41,12.28,22.93,18.67,4.12,3.51,8.43,9.28,13.9,5.43,6.3-4.43.29-9.55-1.98-14.06-1.11-2.2-2.44-4.35-4.01-6.24-8.42-10.11-17.04-19.75-22.05-32.53-5.5-14.01-13.52-14.99-24.48-3.83-13.51,13.75-26.42,28.09-39.25,42.48-4.02,4.51-6.95,10-10.39,15.03-2.33-9.49-7.73-13.14-15.39-13.44-2.48-.1-5.06,2.13-7.59,3.29,1.13,1.9,2.2,3.84,3.42,5.69,2.65,4.04,5.04,8.33,8.14,12,7.35,8.72,7.7,10.18-1.47,17.4-5.34,4.2-9.5,8.04-9.38,15.58.3,19.71-3.94,38.23-17.13,53.99.81.69,1.62,1.39,2.43,2.08,6.84-7.61,13.41-15.48,20.58-22.77,16.18-16.45,16.3-16.33,36.02-5.7.87.47,1.66,1.1,2.55,1.52,13.67,6.46,21.71,3.62,27.64-10.42,3.05-7.23,7.49-10.91,15.66-11.05,6.83-.12,13.89-1.01,20.38-3.05,7.7-2.42,13.03-1.21,18.26,5.13,3.29,3.99,8.1,7.04,12.79,9.41,1.76.89,5.09-1.31,7.71-2.1Zm47.83-22.86c-.48-6.13.52-14.55-3.01-17.76-5.34-4.86-17.02-2.47-16.48-14.71,0-.07-2.74-.6-4.08-.33-3.37.69-7.78.67-9.81,2.8-6.75,7.11-12.81,7.52-19.79.63-.83-.82-3.48.21-5.28.39.31,1.77-.02,4.2,1.03,5.21,4.58,4.41,9.56,8.4,14.99,13.05-3.36,4.23-6.52,7.32-8.5,11.04-1.19,2.25-1.62,5.99-.56,8.16,4.92,10.05,17.5,11.07,26.46,3.95,5.82-4.63,9.2-16.57,20.81-9.44.63.39,4.3-2.06,4.22-3Zm191.71-216.91c-2.8,4.28-4.98,7.62-7.7,11.78-2.88-3.54-5.14-6.07-7.11-8.8-2.01-2.78-3.48-5.98-5.67-8.6-2.03-2.42-5.11-6.47-7-6.1-11.37,2.25-10.91-5-10.95-12.28-.03-5.7-.62-11.56-7.49-12.74-8.03-1.37-10.23-6.77-11.23-13.56-.95-6.44-1.96-12.85-10.17-14.11-.92-.14-2.3-.69-2.54-1.37-1.36-3.96-3.23-8.01-3.27-12.05-.02-2,4.49-6.08,5.25-5.71,3.6,1.75,6.64,4.69,9.83,7.25.34.27.45.88.58,1.35,3.75,12.95,17.21,18.03,23.7,28.93,1.29,2.17,6.93,1.75,10.56,2.52,0-4.09.77-8.39-.22-12.23-1.31-5.07-5.78-9.78-5.77-14.64.03-15.61-4.46-30.05-8.32-44.88-3.64-14-11.38-25.06-20.67-35.16-7.88-8.57-12.72-6.86-16.08,4.73-2.26,7.78-4.74,14.55-12.89,18.79-4.08,2.12-6.2,8.03-9.2,12.23,3.46,2.26,6.77,4.81,10.42,6.7,4.87,2.53,6.26,6.06,4.23,10.99-1.93,4.7-4.96,5.55-9.4,2.87-5.52-3.33-9,.36-10.04,4.83-1.04,4.49-.51,9.58.38,14.21.81,4.25,4.66,8.39,4.29,12.3-1.01,10.52,4.38,18.05,9.85,25.64,5.19,7.2,10.81,14.09,16.43,20.96,6.95,8.5,15.01,12.3,26.87,13.33,1.35.12,2.67,1.13,3.93,1.84,2.98,1.69,5.83,3.65,8.89,5.16,9.86,4.85,11.75,9.16,6.54,18.53-5.72,10.29-11.87,20.38-18.43,30.16-7.21,10.76-23.38,9.53-29.48-1.75-1.86-3.43-3.82-7.01-6.55-9.7-8.07-7.94-16.71-15.3-24.84-23.19-11.34-11-23.26-11.19-34.15-.17-8.22,8.32-8.47,10.35-2.07,20.41,2.92,4.6,6.39,8.88,8.99,13.64,2.61,4.78,12.04,7.89,6.7,14.26-2.55,3.04-10.74,2.24-16.24,1.72-7.56-.71-8.58,3.24-7.81,8.89.32,2.35,1.77,4.56,2.79,6.8,2.84,6.27.3,8.31-5.85,7.49-14.87-1.98-25.1-12.24-36.21-20.75-1.91-1.47-2.15-5.33-2.83-8.17-2.27-9.39,2.58-16.32,9.22-22.04-9.5-2.07-17.78-4.1-26.16-5.55-2.18-.38-5.31.37-6.9,1.81-7.31,6.64-14.24,13.72-21.43,20.77q18.19,7.77,32.15,29.7c1.84,2.88,4.33,5.46,6.92,7.71,10.03,8.75,20.45,17.08,30.28,26.04,6.58,6,12.21,10.81,21.76,4.39,4.89-3.29,12,1.82,12.94,8.1,1.04,6.91-2.28,9.55-9.28,9.97-12.81.76-25.68,3.63-36.6-6.52-1.43-1.33-4.41-1-6.78-1.33-.05-.08-.11-.17-.16-.25-.09,0-.18,0-.27,0-2.74-7.53-8.53-9.38-16.92-10.5,3.53,10.45,10.22,10.51,16.92,10.5.03.07.06.13.08.21.11.02.23.03.35.04,2.79,4.41,5.53,8.84,8.38,13.21,4.65,7.15,1.88,13.93-6.35,12.85-7.42-.97-15.46-3.94-21.37-8.46-17.81-13.61-28.9-33.31-43.03-50.28-1.82-2.18-5.53-4.84-7.64-4.31-4.59,1.13-7.3,4.92-5.71,10.3,1.25,4.23,3.26,8.42,3.57,12.72,1.23,17.08,9.47,26.65,25.26,31.84,10.12,3.33,19.6,8.83,28.95,14.1,1.98,1.12,3.63,7.5,2.92,8.01-8.12,5.92-.31,6.74,2.65,8.7,4.04,2.68,9.87,3.99,12.15,7.63,2.26,3.61,1.07,9.38,1.44,14.96,5.93-2.44,11.36-4.5,16.63-6.91,3.44-1.57,7.9-2.95,9.5-5.77,1-1.77-2.47-6.07-4.55-10.55q19.21,11.15,32.36-1.89c8.59-8.49-5.66-11.54-4.72-20.65,4.46,4.09,7.16,7.48,10.64,9.55,4.7,2.79,12.64,5.47,13.95-1.01,2.55-12.58,5.76-21.62,21-18.83,4.88-6.21,10.23-12.12,14.53-18.7,5.49-8.42,10.34-13.93,17.6-20.09,2.14-1.81,3.67-6.22,3.14-8.99-2.18-11.46,5.98-19.76,8.45-29.75,1.01-4.09,4.05-8.42,10.56-8.79,2.84-.16,5.57-5.57,8.01-8.85,2.9-3.91,4.61-9.25,8.31-11.93,6.81-4.93,9.06-10.72,8.93-18.83-.05-3.14,3.16-6.7,5.61-9.41,3.75-4.15,7.34-7.93,2.68-15.31Zm-37.64,35.79c-3.94-6.9-6.16-10.78-8.37-14.66-3.22,3-6.44,5.99-12.05,11.2,7.99,1.35,12.38,2.1,20.42,3.46Zm111.82-486.84c-4.04-13.09-11.11-25.22-15.88-38.13-3.25-8.78-6.42-17.05-13.43-23.85-18.25-17.71-40.83-27.27-64.16-35.6-14.4-5.14-28.56-11.32-43.36-14.82-11.7-2.77-24.88-4.96-36.14-2.22-9.66,2.35-18.17,11.36-26.04,18.66-10.4,9.64-19.71,20.47-29.47,30.8.01-.02.02-.04.03-.06l-.2.24c.06-.06.11-.12.17-.18-4.39,8.23-8.88,16.4-13.13,24.7-3.09,6.04-6.02,12.18-8.73,18.41-2.74,6.3-4.88,12.86-7.71,19.11-4.15,9.16-9.36,19.27-5.14,28.46,5.66,12.33,14.59,23.17,22.28,34.54.72,1.06,2.55,1.82,3.91,1.91,22.26,1.52,27.95,23.3,42.23,34.54.97.77,1.73,2.93,1.38,4.08-3.68,12.24,3.03,25.31-4.08,37.57-5.53,9.54-4.28,12.17,6.65,13.92,22.4,3.57,44.97,6.17,67.55,8.34,6.1.59,12.48-1.81,21.75-3.33-12.81-3.91-11.58-11.7-10.43-19.06,2.22-14.2,18.91-30.59,28.82-26.53,13.75,5.64,19.63-1.31,26.85-10.6,5.65-7.27,12.49-15.58,20.57-18.46,9.01-3.21,16.57-6.63,22.53-17.4,3.15,17.51-9.53,28.45-7.88,42.62,2.96-2.61,5.46-5.49,6.77-8.83,5.06-12.89,10.5-25.7,14.38-38.96,5.79-19.8,6-40.18-.08-59.87Zm32.3,62.68c-13.12,10.11-13.34,13.38-4.02,24.5,8.18-6.4,1.22-14.67,4.02-24.5Zm63.17-140.22c-.22-2.37-2.21-5.71-4.25-6.61-15.77-6.95-31.95-12.98-47.58-20.2-8.38-3.87-16.02-9.38-23.81-14.43-3.28-2.13-5.88-6.8-9.15-7.18-10.67-1.21-12.63-7.67-14.57-16.77-1.58-7.42-6.96-17.06-15.48-15.75-13.23,2.04-18.79-6.44-25.89-13.55-7.71-7.72-15.04-15.8-23.18-24.39-2.22,8.35,3.68,13.82,7.08,19.47,9.13,15.18,19.9,29.41,28.56,44.83,11.83,21.07,22.32,42.9,33.89,65.37,1.67-.69,3-1.28,4.36-1.78,18.84-6.96,36.55-17.97,57.82-16.18,2.79.24,5.55.78,8.33,1.18-.9,3.07-1.72,6.15-2.7,9.19-1.92,5.97-5.24,11.84-5.61,17.89-.69,11.36,0,11.38-10.39,15.14-.91.33-1.63,1.14-2.52,1.56-7.95,3.82-16.34,6.95-23.7,11.68-3.45,2.21-7.79,8.76-6.74,11.14,3.02,6.86,8.52,12.64,13.27,18.67.29.37,2.76-.58,3.92-1.35,9.08-5.98,18.36-11.71,27.01-18.26,5.39-4.08,11.93-8.72,9.92-16.88-1.7-6.89,1.28-9.57,6.64-12.67,11.4-6.59,16-17.22,14.79-30.14Z"/>
  </g>
</svg>